<svg id="Capa_1" data-name="Capa 1" xmlns="http://www.w3.org/2000/svg" viewBox="0 0 137.37 110.28"><defs><style>.cls-1{fill:#c2c628;}.cls-2{fill:#fafcf8;}.cls-3{fill:#fdfefd;}</style></defs><title>support-16</title><path class="cls-1" d="M617,346h11a1.6,1.6,0,0,0,1.56,1c15.54,2,28.73,8,37.6,21.6a5.08,5.08,0,0,0,3.71,2.19c19,3.5,33.15,12.93,39.13,32.26v13c-2.6,2.87-3,6.84-5.12,10-5.37,8.17-5.28,8.26.87,16.19,1.3,1.68,2.83,3.19,4.25,4.78,0,3,1,8.06-.19,8.59-2.75,1.27-6.48.41-9.81,0.41-5.42-2.38-11.81-2.08-16.77-5.39-5.93-4-12-3.82-18.79-3.38-18.75,1.22-35.22-4.16-47.15-19.7-3.72-4.84-6.93-5.72-12.15-2.72a55.23,55.23,0,0,1-22.63,7.2c-3.63.34-6.93-.15-9.51-3v-5a54.56,54.56,0,0,0,8.94-11.87c0.74-1.24,1.93-2.62.48-4-4.61-4.52-6.63-10.53-9.42-16.09V379a2,2,0,0,0,.73-0.59c5.89-18.84,20.22-27.24,38.3-31.11C613.69,347,615.74,347.88,617,346Zm-22.48,70.66a10.72,10.72,0,0,0,2.73-1.21c5.64-4.72,11.66-4.91,18.86-3.73,13.71,2.25,26.6-.87,37-10.78,10-9.56,9.56-22.79-.83-32a36.33,36.33,0,0,0-12.37-7.38c-16.36-5.54-31.94-4.31-45.86,6.5-11.1,8.62-12.63,22.07-3.17,31.27,5.42,5.28,7.41,9.91,2.83,16.33l-0.35,1Zm95.63,23.47a25.72,25.72,0,0,0-1.75-3.72c-3.14-4.38-2.82-8.1,1.78-11.25a13.57,13.57,0,0,0,2.41-2.52c7.87-9.23,7.54-19.95-.79-28.69a37,37,0,0,0-12.34-8.27c-6.61-2.87-6.61-2.85-7.68,4.23-0.1.66-.25,1.31-0.41,2-4.25,16.68-16.34,25.11-31.7,30-2.89.93-5.91,1.48-9.6,2.38,9.91,8.66,20.89,12.45,32.79,11.13,9.06-1,17.52-2.32,25,4.26C688.19,439.93,688.8,439.86,690.15,440.12Z" transform="translate(-573 -346)"/><path class="cls-2" d="M710,447c-1.42-1.59-2.95-3.1-4.25-4.78-6.15-7.93-6.24-8-.87-16.19,2.09-3.19,2.51-7.15,5.12-10" transform="translate(-573 -346)"/><path class="cls-3" d="M594.52,416.66l-1.16.09,0.35-1Z" transform="translate(-573 -346)"/></svg>