<svg id="Capa_1" data-name="Capa 1" xmlns="http://www.w3.org/2000/svg" xmlns:xlink="http://www.w3.org/1999/xlink" viewBox="0 0 1283 974.73"><defs><style>.cls-1{fill:#f3f3f3;}.cls-2{fill:url(#Degradado_sin_nombre_17);}.cls-3{fill:url(#Degradado_sin_nombre_9);}.cls-4{fill:url(#Degradado_sin_nombre_21);}.cls-5{fill:#fff4d0;}.cls-6{fill:#666;}.cls-7{fill:#936900;}.cls-8{fill:#d32424;}.cls-9{fill:#e63532;}.cls-10{fill:#dbdcdd;}.cls-11{fill:#f19116;}.cls-12{fill:#f7c6a3;}.cls-13{fill:#f9cb9d;}.cls-14{fill:#9258a0;}.cls-15{fill:#bcbdc1;}.cls-16{fill:#27224d;}.cls-17{fill:#9e6d49;}.cls-18{fill:#72b3d8;}.cls-19{fill:#382c65;}.cls-20{fill:#68a4c4;}.cls-21{fill:#5889a3;}.cls-22{fill:#fffdfd;}.cls-23{fill:#3d6fb4;}.cls-24{fill:none;stroke:#000;stroke-miterlimit:10;stroke-width:5px;}</style><linearGradient id="Degradado_sin_nombre_17" x1="790.87" y1="337.83" x2="1733.58" y2="882.1" gradientUnits="userSpaceOnUse"><stop offset="0" stop-color="#ffc28f"/><stop offset="0.1" stop-color="#ffcc80"/><stop offset="0.29" stop-color="#ffdb68"/><stop offset="0.5" stop-color="#ffe657"/><stop offset="0.72" stop-color="#ffec4d"/><stop offset="1" stop-color="#ffee4a"/></linearGradient><linearGradient id="Degradado_sin_nombre_9" x1="852.99" y1="800.09" x2="1756.19" y2="278.63" gradientUnits="userSpaceOnUse"><stop offset="0" stop-color="#ffb11b"/><stop offset="0.3" stop-color="#ffb41d"/><stop offset="0.53" stop-color="#ffbe25"/><stop offset="0.75" stop-color="#ffcf33"/><stop offset="0.96" stop-color="#ffe745"/><stop offset="1" stop-color="#ffed4a"/></linearGradient><linearGradient id="Degradado_sin_nombre_21" x1="1223.76" y1="287.26" x2="1715.01" y2="-203.99" gradientUnits="userSpaceOnUse"><stop offset="0" stop-color="#ffed4a"/><stop offset="0.28" stop-color="#ffeb4d"/><stop offset="0.5" stop-color="#ffe557"/><stop offset="0.71" stop-color="#ffda68"/><stop offset="0.9" stop-color="#ffcc80"/><stop offset="1" stop-color="#ffc28f"/></linearGradient></defs><title>features-2</title><path class="cls-1" d="M1920,1084.09" transform="translate(-637 -1)"/><path class="cls-2" d="M1703.47,429.29c-110.29,6.15-270.48,54.65-464-133.62-159.32-155-434.2-65.77-496.25,140.08C677.37,654.31,839.2,832.64,956.17,901.48c144.13,84.82,429.92,96.83,586.12,36.73,156.71-60.29,266.4-167.9,302.09-251.39C1901.18,553.95,1842,421.56,1703.47,429.29Z" transform="translate(-637 -1)"/><path class="cls-3" d="M1854.58,456.59c-30.54-95.43-151.37-169.46-324-100s-245.48,27.69-372.37-51.86c-168-105.3-386.08-58.08-424,129.71C692.46,641,871.86,803.51,970.48,865s428.91,182.58,735.76-37.53C1831.1,737.94,1892.81,576.07,1854.58,456.59Z" transform="translate(-637 -1)"/><path class="cls-4" d="M1920,1V156.31c-113.93,72.87-252.56,115.6-402.07,115.6C1281.4,271.91,1072.14,165,944.73,1H1920Z" transform="translate(-637 -1)"/><path class="cls-5" d="M767.62,800.73c-9-5.36-9.71-14.17-9.73-23.29q-0.12-69.76-.27-139.53Q758,607,758.3,576a38,38,0,0,1,5.21,2.13c5.79,3.4,12.12,5,16.4-1.06,4-5.61.36-10.75-4.23-15-3.74-3.48-7.7-6.3-12.79-7.26l-5.28-7.18c0.11-18.2.1-36.4,0.37-54.59,0.21-14.37,8-22.17,22.26-22.37,11.23-.16,22.46,0,33.7,0-2.64,9,3.58,11,9.94,11.49,8.64,0.66,17.52.38,18.67-11.61H882l9.2,0.12c1.52,8.35,8,9.28,14.63,9.34,7,0.07,13.88-.65,15.85-9.36h88.53c0.31,9.26,7,9.56,13.66,9.47s14.33,0.62,14.84-9.47l11.53,0,49.14,0.07,14.34-.87,50.92,0.47c-0.51,7.16,4.1,9.83,10,9.59,7.23-.29,15.84.83,18.25-9.36h20.65l30.68,0.18,35.54,0.07,8.9-.16c6.71,12.88,21.25,12.94,30.37.12l107.45-.42c0.77,6.46,4.62,10,10.9,9.55,7.05-.47,15.23.25,17.55-9.41l18.17,0.3,14.18,0c1.21,6.81,5.65,9.75,12.15,9.21,7.25-.61,15.64.48,18.41-9.25L1651,470.81c0.54,11.09,8.59,11.26,16.65,11.52s13.81-2.25,13.78-11.61c8.31-1.76,14.21,3.47,20.66,7.11,2.82,8.52,3.09,17.28,3,26.17-0.11,18.49.22,37,.37,55.47-0.11,33.08-.36,66.17-0.22,99.25,0,8.85-1.65,17.84,1.25,26.57-3.6,31.22-.9,62.55-1.59,93.83-0.15,6.77-.83,13.08-4.89,18.68-13.06,9.86-28.14,4.51-42.36,5.62l-43.94-.62H1576.2c-9.37-.92-18.48,1.23-27.68,2.38a64.19,64.19,0,0,0-38,0c-22.24-4.15-44.7-1.7-67.06-2.3-3.37-.09-7.05-0.92-9.84,2.08l-6.86-.28c-14.43-2.91-29-1.22-43.47-1-7.52-1.45-15.08-1-22.63-.43H1312.3l-91.81-.4-34.8,0c-16.57.08-33.14,0.22-49.7,0.19-3.64,0-5.39,2.75-7.86,4.5-11-4.59-22.38-3.63-33.78-2.48-23.1-4.17-46.32-2.27-69.51-1.26l-45.68-.08a99.55,99.55,0,0,0-28.9,0H904.4q-45.13-2.29-90.26,0c-14.26-.43-28.58,1.33-42.79-1.09Z" transform="translate(-637 -1)"/><path class="cls-6" d="M1706.54,685.29c-2.9-8.73-1.21-17.72-1.25-26.57-0.14-33.08.11-66.17,0.22-99.25,28.46-4,57.06-2.07,85.62-2.06a8.13,8.13,0,0,0,.17,9.11c-3.21,6.16,2.2,8.24,5.6,10.6s5.73,0.41,6.24-3.56l4.76,0.93q-3.62,150.64-7.13,301.28c-0.13,5.57-.6,10-6.94,11.41L1766,884.25c-5.1-1.57-5.32-5.7-5.66-10.1-4-51.23-5.16-102.58-6.22-153.91-0.86-41.88-.18-83.79-2.74-126.13C1732.34,623.06,1720.48,654.68,1706.54,685.29Z" transform="translate(-637 -1)"/><path class="cls-7" d="M758.3,576q-0.34,31-.68,61.92c-5.72,31.61-11.59,63.2-17.12,94.84-8.54,48.89-16.85,97.83-25.26,146.75l-36.88,2.59c2.47-114.38,12.28-228.25,23.64-342,17,12,33.86,24,53.64,31.09ZM689.61,840c5.16-23.23.3-47.13,3.37-70.6C690.78,792.85,686,816.1,689.61,840Zm13.16-210.77-3,44.5C704.84,659.17,703.6,644.2,702.77,629.25ZM696,750.14l2.66-31.34C694.12,729,695.46,739.59,696,750.14Zm8.63-150.54c6.05-9.87,7.76-29.61,4.91-39.55Z" transform="translate(-637 -1)"/><path class="cls-8" d="M1791.13,557.41c-28.56,0-57.16-1.95-85.62,2.06-0.15-18.49-.48-37-0.37-55.47,0.05-8.89-.22-17.66-3-26.17,8.25-34.31,12.62-69.52,23.75-103.17,4.16-6.28,10.9-6.14,17.25-6.88,4.88-.57,10-0.21,13.78-4.29,2.25,5.56,2.17,12.14,7.17,16.51-4.07,17.46-9.93,34.62-9.61,52.81,1.55-14.4,12-26.88,9.62-42.19-0.32-2,2.51-4.52,3.88-6.8l13.54,5.38c7.73,15.07-4.24,31,1.88,46.2,0.89-15.55,8.5-30.51,3.81-46.45,13.32,0.23,25.4-3.29,35.82-11.83l12.67,9.27c-14.38,14.29-16,32.71-16.66,51.44-10.54,11.13-12.9,26.4-17.67,39.81-6.77,19-15.38,37.79-14.89,59.62,0.19,8.65,1.78,11.69,7.48,15.33Z" transform="translate(-637 -1)"/><path class="cls-7" d="M1288.61,470.56l-8.9.16c0.19-31,8.23-60.3,20-88.68,4.46-10.79,14.74-13,24.91-14.13,9.62-1.07,19.33-1.34,29-2l17,27.67a45.37,45.37,0,0,0,8.94,14.65l28.64-40.57c8.35,1.38,16.73,2.66,25.06,4.17,9.43,1.72,16.09,6.8,19.53,16.06A355.3,355.3,0,0,1,1473,470.7l-18.17-.31c-8.22-14.1-20.22-14.16-28.45-.14l-107.44.42C1309,456.17,1298.65,456.13,1288.61,470.56Zm29.18-22.61V378.82C1313.68,387.7,1313.58,438.51,1317.79,447.95Zm117-66.08c-3.65,31.88-1.66,57.52,4.32,61.51C1438.09,423.81,1438.33,404.17,1434.74,381.87Z" transform="translate(-637 -1)"/><path class="cls-9" d="M1651,470.81l-133.22-.11c-5.25-9.37-13.67-10.85-23.28-9.33-1-22.32.82-44.15,9-65.28,4.85-12.45,13.41-18.44,26.48-18.94,8.15-.31,16.3-1.48,24.44-1.44,8.83,0,14.05-3.39,15-12.42,9.94,2.26,19.89,1.81,29.84.07,1.77,11.07,10.79,12.55,19.35,14.64,5.26,3.66,9.42,8.49,14,12.83,5.38,5.09,9.44,15.74,20.52,9.8,7.06,18.77,7.07,38.72,9.83,58.22C1661.5,465.33,1655.29,467.11,1651,470.81Z" transform="translate(-637 -1)"/><path class="cls-10" d="M1010.2,470.6l-88.53,0c-0.83-8.77-9.12-8.09-14.32-11.31l-4.48-72.68c6.79-4.42,14.45-4.87,22.22-4.82,7.38,0,14.8.53,21.83-2.51,6.71,4.42,9.67,22.23,22.15,6.2a2.19,2.19,0,0,1,2.11-.2c11.09,11.83,14.84-1.8,21.25-6.09,11.85,4.73,25.25,3.55,36.72,9.7a377.47,377.47,0,0,0-4.64,72.29A19.52,19.52,0,0,0,1010.2,470.6ZM934.1,419.35c-13.88,0-14.7.67-14.79,11.48-0.08,9.63,5.93,17.24,13.92,16.24,8.41-1.05,12.09-6.21,12-15.32S943.67,417,934.1,419.35Z" transform="translate(-637 -1)"/><path class="cls-11" d="M1118.13,328.62c8.69-6.75,12.54-16.58,16.64-26.23,14.09-33.16,29.26-35.74,59-32,21.85,2.73,39.93,28.33,38.49,54.35-1.28,23.21,2.18,44.49,13.1,65.18,9.09,17.23,7.81,35.3-1.45,52.59-3.77-.2-3.68-3.09-4.24-5.76-2.29-10.9-4.6-21.81-7.17-32.65-3.32-14-11.86-22.1-26.74-22.54-3.45-2.52-7.33-2.24-11.25-1.75-11.49-7.61-13.19-26.14-3.57-37,6.71-7.55,13.18-14.79,9.52-26.72-4-13.21-16.9-17.43-24.66-26.71-0.56-.67-2.93-0.16-4.34.24-19,5.47-30.31,37.12-19,53.1,9.93,14,8.07,24-6.38,34l-4.61-.38c0.4-5.17-1.48-9.6-4-14C1130.85,351.2,1124.53,339.88,1118.13,328.62Z" transform="translate(-637 -1)"/><path class="cls-8" d="M1791.13,557.41l2.81-4.83c9.3-3.56,14.92-12.22,23.42-16.9,8.5-6,16.83-12.3,25.55-18,10.28-6.69,11.12-14.54,4.65-24.39-8.89-13.53-17.43-27.28-26.12-40.94-2.2-4.62-2-9.64-2.42-14.57,0.66-18.73,2.28-37.15,16.66-51.44,20.6,29.4,38.79,60,47.59,95.32,3.91,15.73,1.64,30-8.09,43-17.42,23.37-39.35,40.61-67.28,49.76l-4.77-.93-11.84-7A8.13,8.13,0,0,1,1791.13,557.41Z" transform="translate(-637 -1)"/><path class="cls-9" d="M755.64,571.17C735.86,564.08,719,552,702,540.08c-35.31-25.83-33.88-61.14-25.36-98.28,4.43-19.3,10.49-38,20.76-55.11,3.1-5.16,6.56-9.72,13.56-9-0.87,1.84-4,2.31-2.6,5.59,12.37,29.35,5.49,58.94,1.48,88.65-0.88,6.51-6.31,13.72.06,20.42,0.36,1.41.29,3.22,1.15,4.17q23.18,25.61,46.56,51l5.28,7.18Z" transform="translate(-637 -1)"/><path class="cls-7" d="M757.62,547.6q-23.31-25.49-46.56-51c-0.87-1-.79-2.76-1.15-4.18,3.78-4.36,8.06-8.38,11.24-13.14,11-16.38,19.07-33.16,13.76-54.27-4-16-5.34-32.78-7.85-49.2l8.7-1.45q1.88,5.29,3.79,10.57c0,1.72-.47,3.65,2.08,4l-0.11-.15c-1,10.24,2.79,19.78,5.13,29.37,4.65,19.06-.17,17,21.32,17.11,6.57,0,13.16-.34,19.7.1,6.26,0.42,8.24-2.16,7.68-8.07-1.28-13.43-2.32-26.88-3.46-40.32,0.89-3.16-1.1-8,4.74-8.29l3.47,1.22c3.11,27.85,1.8,56.56,16,82.26l0.7,4.07-2.84,4.38c-11.23,0-22.47-.14-33.69,0-14.23.2-22,8-22.26,22.37C757.71,511.2,757.73,529.4,757.62,547.6Z" transform="translate(-637 -1)"/><path class="cls-12" d="M1118.13,328.62c6.41,11.26,12.73,22.58,19.27,33.76,2.56,4.38,4.44,8.81,4,14-9,5.07-11.11,15.09-16.33,22.88l-1.48,3.46c-1.8,2.85-3.67,5.68-3.73,9.24l-1.45,2.71-2.73,3.65c-2.35-3.59-3.38-7.65-4.68-11.71-6.42-20.11-11.16-40.82-21-59.71-1.82-13.54-8.92-25.47-11.87-38.65-9-40.38-15.6-81.09-16.44-122.57l16.69-12.48c1.37,29.18,10.38,57,15.24,85.56C1097.81,283.47,1106.56,306.52,1118.13,328.62Z" transform="translate(-637 -1)"/><path class="cls-13" d="M1361.47,357.94c6-16.23-4.67-27-12.78-38.54-4.32-6.17-11.2-12.07-2-19.59,5.68,1.32,7.1-2.43,8.87-6.71,2-4.9,3-10.94,8.36-13.55,12.19-5.94,32.2,1.14,38.85,13.64,2.08,3.91,3.66,7.91,9.26,6.65,5.37,4.42,3.57,9.45,1.11,14.43a9.85,9.85,0,0,1-2.82,3.62c-13.54,9.69-17.78,22.66-13.94,38.59C1385,362,1373.25,360.52,1361.47,357.94Z" transform="translate(-637 -1)"/><path class="cls-12" d="M796.63,378.69c-5.84.33-3.85,5.13-4.74,8.29-3,5.56-8.06,7.88-14,9.41-13.48,3.48-25.06-1.3-36.41-7.59l0.11,0.15c0.42-1.92-.46-3.18-2.08-4q-1.9-5.29-3.79-10.57c4.32-3.63,13.34,1.17,14.49-8.11,0.92-7.45-2.26-12.56-8.85-15.78,1.34-6.5-2.75-10.68-6.31-15.2-4.22-5.35-7.41-11-2.08-17.57,2.26,0.7,4.88-.49,5.7,3.89,2.67,14.24,9.34,16.47,19.88,6.81,4.23-3.87,6.85-3.84,10.32.6,5,6.35,11.25,7,17.06,1.55,4.34-4.06,3.85-9.4-.42-13.37-5.33-5-11.25-5.12-16.26.65-3.41,3.94-7.54,5.43-10.73,1.34-6.08-7.81-12.7-5.21-19.7-2.57,4.4-16.2,5.81-17.16,23-16.27,1.89,0.1,4.09.09,5.68-.76,11.47-6.13,16.75.81,19.92,10,1.8,5.25,3.34,9.3,9.69,9,4.93,8.05.08,13.81-5.07,18.9-3.55,3.5-7,6.76-8.36,11.71C773,364.69,777.25,374.48,796.63,378.69Z" transform="translate(-637 -1)"/><path class="cls-14" d="M783.73,349.12c1.34-5,4.81-8.2,8.36-11.71,5.15-5.08,10-10.84,5.07-18.9,5.38-18.78-5.21-34.79-24.57-37.57-6-.87-12.2-1.55-17.63-5.08-4.73-3.08-10.53-3.54-13.28,1.77-6.2,12-15.57,23.62-8.22,38.59a2.48,2.48,0,0,0-.46,1.42c-5.33,6.56-2.14,12.22,2.08,17.57,3.56,4.52,7.65,8.7,6.31,15.2-15.55-3.8-28.55-10.39-31.24-28.38-2.74-18.32,7-39.31,23.25-48.7,17-9.84,35.65-11,54.16-7,20.16,4.35,32.8,24.67,31.41,47.19C817.82,332.09,803.89,346.17,783.73,349.12Z" transform="translate(-637 -1)"/><path class="cls-11" d="M1090,346.89c9.88,18.89,14.62,39.61,21,59.71,1.3,4.06,2.33,8.11,4.68,11.7l-2.07,8-0.48,2.44c-2.68,4.56-2.57,9.38-1.27,14.3l1.18,2.87,0.31,11.42,0.29,3.05,0,9.41-14.34.87c-2.35-12.92-9.5-22.62-20-30.17a53.43,53.43,0,0,1-12.45-12.09c-6-8.39-6.84-18.21.59-24.35,16.1-13.29,20.18-30.23,20.07-49.54C1087.55,352,1089.15,349.42,1090,346.89Z" transform="translate(-637 -1)"/><path class="cls-12" d="M954,370.09c1.06-8.23.45-15.07-10.76-14a6.55,6.55,0,0,1-7.14-4.79c-2.42-7.21-.72-16-8.71-21.23-0.77-.5,1.42-5.56,2.26-8.5,1.38-4.81,2.78-9.62,4.17-14.43,6.94-.05,13.89.54,20.78-1.16,10.33-2.55,18.61-1.15,20.76,11.43,0.4,2.31,1.68,4.62,4.33,4.62s2.06-2.8,3-4.35c2-3.4,4.29-7.15,8.91-5.76,4.28,1.29,5.27,5.17,4.74,9.38,0.29,3.14.53,6.43-1.95,8.78-11.92,11.29-10.37,25.57-9.07,39.83C972.73,381.88,971.21,381.89,954,370.09Z" transform="translate(-637 -1)"/><path class="cls-7" d="M771.35,802.62c14.21,2.42,28.53.67,42.79,1.09,0.51,24.18-3.64,48-5,72.09-9.4,8.79-20.33,3.2-30.63,3.12-6.18,0-9.18-2.73-9-10,0.45-18.91-.27-37.84-0.33-56.77C769.19,808.91,767.57,805.09,771.35,802.62Z" transform="translate(-637 -1)"/><path class="cls-13" d="M1220.52,814.41q4.95,44.52,9.88,89c2,18,14.83,22.81,30,24.92-16.26,2.24-32.47,2.8-48.52-1.58-4.34-35.09-14-69-22.44-103.22-0.74-3-1-6.09-1.5-9.14Z" transform="translate(-637 -1)"/><path class="cls-13" d="M1807.9,337c-0.92,3.32-4.8,5.13-4.57,9-2,11-8.14,17.44-19,21.35-8.94,3.2-11.66-.61-10.2-7.17,2.09-9.43-2.34-10.81-9.51-11-10.82-19.59-7.62-38.31,3.53-56.53,15.29-3.25,30.79,5,34.55,18.91,1.48,5.46,4.17,6.37,8.08,3.13,3.56-3,7.33-5.51,11.25-2.34s2,7.72.5,11.76c-0.77,2-2.52,4-.63,6.36l0,0C1815.65,329.44,1811.41,332.45,1807.9,337Z" transform="translate(-637 -1)"/><path class="cls-15" d="M942.13,870.2c0.2,21.51.26,43-7,63.69l-69.38.2c-1.24-5.71,1.3-9.18,6.79-10,24.63-3.84,28.63-21.26,28.26-42-0.09-4.82-2.51-11.78,6.68-11.59Z" transform="translate(-637 -1)"/><path class="cls-15" d="M1022.08,870.52c5.21,8.71,2.75,18.72,4,28,1.88,14,9.18,20.25,21.53,23.53,6.5,1.73,14.33,2.69,13.27,12.64a544.62,544.62,0,0,0-70.29,0c-5.93-6.84-3.18-15.56-4.7-23.33-2.13-10.85-2.39-22.07-3.33-33.15-0.3-3.48-.58-7.2,4.43-7.77Z" transform="translate(-637 -1)"/><path class="cls-16" d="M1555.16,334.71c-11.79-5.8-13.33-28.41-2.63-39.89,4.58-4.91,10-9.44,16.5-10.47,9.75-1.54,13.29-4.5,8.7-14.69-3.88-8.59.41-16,7.5-21.34,8.46-6.42,19.54-5.88,25.47.86,5.6,6.36,5.13,17-3.33,23.85-10.27,8.29-7.36,12.39,2.16,18,12.12,7.08,16.27,19,13.7,32.18-2.5,12.86-10.25,22.31-23.59,26,2.76-8.41,11.14-12.39,15.42-19.54,1.93-3.22,3.59-6.85,1.29-10.83-2.05-3.57-4.51-1.55-6.92-.7l-2.91-5.17c-4.12-18-19-14-31.29-15.25-8.59-.88-10.5,5.7-12.62,11.88l-3.74,8.46c-7.06-3.84-8.59.64-8,6C1551.34,327.7,1553.68,331.16,1555.16,334.71Z" transform="translate(-637 -1)"/><path class="cls-9" d="M1657.7,803.42c14.22-1.12,29.3,4.24,42.36-5.62,5.49,18.34,10.78,36.75,16.6,55,1.45,4.55-.3,7.23-2.89,10.14L1688.25,873c-2.58-.54-5.56-0.34-6.78-3.49C1673,847.69,1662.47,826.59,1657.7,803.42Z" transform="translate(-637 -1)"/><path class="cls-8" d="M1026.66,107l8-8.39c9-2.81,15.75-8.89,22-15.58a13.51,13.51,0,0,0,2.09-1c16.8-11.59,16.87-11.62,23.78,8.37,5.78,16.72,11.34,33.52,17,50.29-4.08,6.6-11.28,9.5-16.89,14.29-4.76-5.18-12.08-8.54-11.81-17.28,0.07-2.12-1.84-3-3.93-3.53-15.66-3.84-24.62-18.91-39.67-23.89C1026.77,110.08,1026.85,108.1,1026.66,107Z" transform="translate(-637 -1)"/><path class="cls-14" d="M1022.08,870.52l-35.09,0q-3.92-33.39-7.83-66.78l45.68,0.08Q1023.45,837.16,1022.08,870.52Z" transform="translate(-637 -1)"/><path class="cls-14" d="M942.13,870.2l-34.66.3q-1.54-33.39-3.07-66.78h45.87Q946.2,837,942.13,870.2Z" transform="translate(-637 -1)"/><path class="cls-15" d="M1312.3,803.26h48.36a6.05,6.05,0,0,1-.25,1.77c-2.28.2-5.27-.09-5.82,2.67-3.94,19.9-9.33,39.64-7.47,60.26-7.49,3.23-15.55,1.37-23.26,2.6-3.25-1.78-6.92-2.61-7.24-7.74C1315.37,843,1311.16,823.31,1312.3,803.26Z" transform="translate(-637 -1)"/><path class="cls-12" d="M1205.73,381.52c14.88,0.44,23.42,8.51,26.74,22.54,2.57,10.84,4.87,21.75,7.17,32.65,0.56,2.67.47,5.56,4.24,5.76-3.85,9.43,1.54,18.76.29,28.16l-30.68-.18q-0.23-4.92-.46-9.84l-1.45-4.05-1-11.53-1.05-2.53L1208.57,429l-0.29-3.15c0.35-3.05.89-6.13-1.14-8.88q-0.09-1.63-.18-3.27l-0.49-10.7,0.15-3.55Z" transform="translate(-637 -1)"/><path class="cls-13" d="M1125.32,816.73c-3.17,21-9.56,41.46-10.82,62.8-0.53,8.88-1.13,17.75-1.7,26.63-4.49,5.43-5.61,15.57-14.37,15-7.83-.54-5.35-10-8.13-15.2,5.12-28.76,4.3-57.83,4.51-86.85C1105.1,820,1115,815.23,1125.32,816.73Z" transform="translate(-637 -1)"/><path class="cls-15" d="M1383.3,803.7c14.5-.27,29-2,43.46,1-7.75,16.7-9,35.26-11.35,52.79-1.82,13.31-8.33,9.88-15.06,11l-11-.22c-3.53-1.89-4.38-5-4.47-8.78C1384.4,840.86,1383.83,822.28,1383.3,803.7Z" transform="translate(-637 -1)"/><path class="cls-16" d="M996.31,321.27c0.53-4.2-.46-8.08-4.74-9.38-4.62-1.4-6.91,2.36-8.91,5.76-0.91,1.55-.46,4.35-3,4.35s-3.94-2.31-4.33-4.62c-2.15-12.57-10.43-14-20.76-11.43-6.88,1.7-13.84,1.11-20.78,1.16-8.16-5.72-12.27-12.86-7.57-22.79,4.53-9.57,12.3-10.08,21.59-8.25,8.32,1.63,17,1.62,25.4,2.75C992.11,281.34,1002.41,300.55,996.31,321.27Z" transform="translate(-637 -1)"/><path class="cls-13" d="M1588.65,891.06c-3.68-23.95-8.72-47.7-10.12-72h35c1,24.07-.88,48-2.38,72Z" transform="translate(-637 -1)"/><path class="cls-13" d="M1546.18,819.15c-1.6,24.24-6.36,48-10.12,72l-22.72.26q-1.18-36.14-2.36-72.28Z" transform="translate(-637 -1)"/><path class="cls-8" d="M1725.85,374.66c-11.13,33.65-15.5,68.86-23.75,103.17-6.45-3.65-12.35-8.87-20.66-7.11l-8.19-8.3C1684.62,429.47,1699.57,398.66,1725.85,374.66Z" transform="translate(-637 -1)"/><path class="cls-8" d="M727,375.77c2.52,16.43,3.81,33.16,7.85,49.2,5.32,21.1-2.79,37.89-13.76,54.27C718,484,713.68,488,709.9,492.38c-6.38-6.7-.94-13.91-0.06-20.42,4-29.7,10.89-59.3-1.48-88.65-1.38-3.27,1.72-3.75,2.6-5.59Z" transform="translate(-637 -1)"/><path class="cls-17" d="M1821.85,330.55c-1.89-2.32-.14-4.32.63-6.36,1.52-4,3.37-8.63-.5-11.76s-7.69-.61-11.25,2.34c-3.91,3.24-6.6,2.33-8.08-3.13-3.76-13.89-19.26-22.16-34.55-18.91-3.08-8.94-.69-17,4.67-24.12,6-8,12.22-8.24,18.75-.45,5.49,6.54,13.34,8.08,20.55,10.19C1829.68,283.49,1839.41,319.68,1821.85,330.55Z" transform="translate(-637 -1)"/><path class="cls-8" d="M1764.58,349.26c7.17,0.18,11.61,1.56,9.51,11-1.45,6.56,1.26,10.38,10.2,7.17,10.9-3.91,17.06-10.32,19-21.35,22,5.18,28.21,15,19.67,31-10.43,8.54-22.51,12.06-35.83,11.83-1.65-3.11,1.62-7.21-1.35-10.39-4.57,2.88-3.68,7-4.34,10.64l-13.55-5.38c0.68-2.76,4.57-4.14,3.39-7.81-3.92-1.32-4.66,3.07-7.28,4-5-4.38-4.91-11-7.17-16.51C1754.35,356,1760.95,353.43,1764.58,349.26Z" transform="translate(-637 -1)"/><path class="cls-16" d="M1513.33,891.37l22.72-.26c1.32,13.21-.72,26.33-1.2,39.48-0.11,3,1.7,7.71-3.36,8.65-5.63,1-5.81-3.71-6.75-7.39-0.27-1.07-.56-2.14-1.39-5.29-12.54,20.3-30.71,11-49.71,13.12,7.93-11.6,20.3-11.69,26.78-20.12A67.61,67.61,0,0,0,1513.33,891.37Z" transform="translate(-637 -1)"/><path class="cls-16" d="M1588.65,891.06l22.45,0.06c4.55,18.1,12.27,33.62,31.74,39.9,3,1,6.3,3,5.42,6.53-0.83,3.33-4.63,1.67-7.12,1.9-3.08.29-6.23-.13-9.34,0-11.35.44-23,1.76-28.19-11.3-4.36,1.32-3.75,4-4.07,6.18-0.56,3.81-2.71,5.49-6.41,5.06-4.19-.49-2.95-3.95-3-6.38C1589.53,919,1589.12,905,1588.65,891.06Z" transform="translate(-637 -1)"/><path class="cls-12" d="M1609.44,318.09c2.41-.84,4.86-2.86,6.92.7,2.29,4,.63,7.61-1.29,10.83-4.28,7.15-12.66,11.13-15.42,19.54q-0.16,7.1-.32,14.2c-10,1.74-19.9,2.19-29.84-.07,1.72-12.79-10.27-18.7-14.33-28.58-1.48-3.55-3.81-7-4.24-10.68-0.62-5.38.91-9.86,8-6-1.13,6,2,9.78,7.06,11.74,5.28,2,9.72.28,13.07-4.47,3.69-5.22,7.31-4.88,10.72.51,3.16,5,8,5.9,13.22,4.33C1608.91,328.35,1609.88,323.51,1609.44,318.09Z" transform="translate(-637 -1)"/><path class="cls-15" d="M902.87,386.63q2.24,36.34,4.48,72.67c-7.44.84-12.29,5.39-16.16,11.33l-9.2-.12c-1-25.66-.26-51.07,11.49-74.75C895.5,391.71,897,386.87,902.87,386.63Z" transform="translate(-637 -1)"/><path class="cls-9" d="M816.78,466.24l-0.7-4.07c-1.48-26.55-2.6-53.1-2.22-79.69,9.59,3.74,11.66,12.93,14.56,21.09,7.44,20.89,10.78,42.71,13.32,64.65C833.8,462.69,825.65,459.89,816.78,466.24Z" transform="translate(-637 -1)"/><path class="cls-15" d="M1024.51,461.19a377.47,377.47,0,0,1,4.64-72.29c7.84,2.94,10.14,10,12.1,17a252.42,252.42,0,0,1,9,64.68l-11.53,0C1035.57,465.05,1030.58,462.3,1024.51,461.19Z" transform="translate(-637 -1)"/><path class="cls-15" d="M1744.87,915.17c9.85-.55,12.7-11,20.5-14.47,9,3.37,17.13,10.15,27.77,7,4.69,6.72,2.53,14.28,2.64,21.56-14.34,6.55-29.59,2.62-44.39,3.88C1753.08,925.75,1745.35,921.78,1744.87,915.17Z" transform="translate(-637 -1)"/><path class="cls-15" d="M1286.55,926.93c0.85-4.41,4.36-6.35,8-7.09,12.9-2.61,23.29-9.15,31.82-19,8.41,3.9,16.3,10,26.5,6.27a34.28,34.28,0,0,1,3.19,20.21,36.2,36.2,0,0,1-23.17,3.39c0.3-5.55,7.67-8.43,5.73-15.7-6.56,4-9.1,10.29-12.49,15.91C1312.42,934.83,1299.41,931.63,1286.55,926.93Z" transform="translate(-637 -1)"/><path class="cls-15" d="M1418.46,898.72c7.21,9.79,15,18.57,28.34,19.86,3.37,0.33,7.93,1.13,8.21,6.38-11,11.7-24.72,7-37.78,6.1-1.5-6.42-5.32-11.16-10.62-15.45-2.77,6.58,5.52,9.41,3.88,15-7.49,2.28-14.45-.77-21.58-2.14,0.53-7.14-1-14.58,3.08-21.21C1402.61,910,1411.13,906.23,1418.46,898.72Z" transform="translate(-637 -1)"/><path class="cls-15" d="M1721.61,882.17c6.22,4.47,10.66,10.09,11.69,17.93-8.3,13-23.48,15.13-35.39,22.43-12.6-7-13.65-16.78-6.74-28.45,1-1.62,1.71-3.37,2.55-5.06C1703,886.73,1714.07,891.58,1721.61,882.17Z" transform="translate(-637 -1)"/><path class="cls-9" d="M1352.89,907.15c-10.2,3.68-18.1-2.37-26.5-6.27l-2.53-30.3c7.71-1.23,15.77.63,23.26-2.6l8.24,0.31Z" transform="translate(-637 -1)"/><path class="cls-9" d="M1418.46,898.72c-7.32,7.51-15.84,11.3-26.48,8.54l-2.67-39,11,0.22c6.58,3.35,13.8.7,20.58,2.16Z" transform="translate(-637 -1)"/><path class="cls-17" d="M1412.08,299.84c-5.6,1.26-7.18-2.74-9.26-6.65-6.65-12.49-26.66-19.58-38.85-13.64-5.36,2.61-6.33,8.65-8.36,13.55-1.77,4.28-3.19,8-8.87,6.71,0.81-23.09,12.53-35.53,33.5-35.57C1400.52,264.2,1410.59,275.46,1412.08,299.84Z" transform="translate(-637 -1)"/><path class="cls-14" d="M771.35,802.62c-3.78,2.47-2.16,6.29-2.15,9.53,0.06,18.93.78,37.86,0.33,56.77-0.17,7.28,2.83,10,9,10,10.29,0.08,21.23,5.67,30.63-3.12,1.9,8.32,7.11,17.77-7.05,20.57l-24.67-1.45c-3.7-1-7.56-1.68-11.05-3.19-4.06-1.75-6.8-6.38-3.54-9.22,7.37-6.41,4.55-14.19,4.66-21.49,0.29-20.1.12-40.2,0.12-60.3Z" transform="translate(-637 -1)"/><path class="cls-13" d="M708.29,893.82l-5.79,32c-3.51-3.7-7.15-.78-10.71-0.16-10.62,1.85-21.17,4.51-32.08,2.41,20.21-6.76,20.21-6.76,21.73-34Z" transform="translate(-637 -1)"/><path class="cls-18" d="M1361.47,357.94c11.78,2.58,23.52,4.08,35-1.46l1.71,4.59c-7.59,12.19-17.17,22.7-27.54,32.55l-17-27.67C1357.51,364.56,1360.87,362.6,1361.47,357.94Z" transform="translate(-637 -1)"/><path class="cls-13" d="M777.43,894.93l24.67,1.45c0,1.55-.1,3.11-0.12,4.66-0.17,20.28-.16,20.28,18.84,27-7.28,1.38-14.45,0-21.71-.43-7-.38-13.56-6.1-20.87-1.79C775.57,915.58,777.31,905.23,777.43,894.93Z" transform="translate(-637 -1)"/><path class="cls-19" d="M778.25,925.8c7.31-4.31,13.88,1.4,20.87,1.79,7.25,0.4,14.43,1.81,21.71.43,6.28,1.92,12.6,3.69,18.81,5.84,2,0.69,4.85,1.67,4.21,4.62s-3.69,2.33-5.79,2.45c-16.7.95-33.31-.08-49.94-1.77C779.25,938.25,779.53,931.72,778.25,925.8Z" transform="translate(-637 -1)"/><path class="cls-19" d="M659.72,928c10.91,2.09,21.46-.56,32.08-2.41,3.56-.62,7.2-3.55,10.71.16-0.21,9.36-4.8,13.64-14.36,14.06-14.68.65-29.33,2.07-44,1.2-2.48-.15-6.29.87-7-2.38-0.88-4.1,3.36-4.58,6-5.53C648.6,931.21,654.19,929.72,659.72,928Z" transform="translate(-637 -1)"/><path class="cls-20" d="M1420.93,870.6c-6.78-1.46-14,1.18-20.58-2.16,6.72-1.13,13.24,2.3,15.06-11,2.39-17.53,3.6-36.09,11.35-52.79l6.86,0.28c-1.69,18.93-3.58,37.85-4.93,56.81C1428.3,867.2,1425,868.91,1420.93,870.6Z" transform="translate(-637 -1)"/><path class="cls-8" d="M813.86,382.48c-0.38,26.59.75,53.15,2.22,79.69-14.18-25.7-12.88-54.41-16-82.26Z" transform="translate(-637 -1)"/><path class="cls-8" d="M1026.66,107c0.19,1.14.11,3.13,0.62,3.3,15,5,24,20.05,39.67,23.89,2.09,0.51,4,1.4,3.93,3.53-0.28,8.74,7,12.1,11.81,17.28l-4.3,4.84c-0.13-1.51-.78-2.5-2.46-2.46l0.06,0c-8.9-10.93-22.1-16.19-32.77-24.8a137.64,137.64,0,0,0-18-12.54C1015,114.16,1018.34,110.46,1026.66,107Z" transform="translate(-637 -1)"/><path class="cls-20" d="M1355.36,868.29l-8.24-.31c-1.86-20.62,3.53-40.36,7.47-60.26,0.55-2.76,3.54-2.48,5.82-2.67a315.22,315.22,0,0,1-1.32,55.38C1358.71,863.56,1358.64,866.62,1355.36,868.29Z" transform="translate(-637 -1)"/><path class="cls-9" d="M1211.86,926.8c16.05,4.38,32.26,3.82,48.52,1.58,4.41,1.21,11.74-1,11.45,6.39-0.32,8-7.63,5.87-12.63,5.95-11.17.17-22.37-.6-33.5,0.06C1215.07,941.41,1210.48,937.4,1211.86,926.8Z" transform="translate(-637 -1)"/><path class="cls-9" d="M1090.29,905.94c2.78,5.17.31,14.67,8.13,15.2,8.75,0.6,9.88-9.55,14.37-15,1.21,8.58-.15,17-2.07,25.27-1.43,6.19-4.9,10.56-12.09,9.95s-11.46-4.63-12-11.77C1086,921.49,1086.67,913.45,1090.29,905.94Z" transform="translate(-637 -1)"/><path class="cls-8" d="M1106.2,150.27c18.18,9.17,18.18,9.17,2.91,21.75-13,10.7-13,10.69-21.1-3.27-0.54-.92-1.71-1.47-2.58-2.19C1093.08,162.07,1097.36,153.26,1106.2,150.27Z" transform="translate(-637 -1)"/><path class="cls-20" d="M1370.6,393.61c10.37-9.84,19.95-20.35,27.54-32.55l10,6.62-28.63,40.57A45.37,45.37,0,0,1,1370.6,393.61Z" transform="translate(-637 -1)"/><path class="cls-12" d="M1546.18,819.15l-35.2-.06q-0.22-7-.45-14a64.19,64.19,0,0,1,38,0C1547.63,809.81,1549.46,814.91,1546.18,819.15Z" transform="translate(-637 -1)"/><path class="cls-12" d="M1613.48,819.09h-35c-1.62-5.31-3-10.66-2.33-16.3h37.56Q1613.62,810.95,1613.48,819.09Z" transform="translate(-637 -1)"/><path class="cls-15" d="M954,370.09c17.22,11.8,18.74,11.79,31.3-.21,4.84,1.23,5.46,5.67,7.13,9.32-6.41,4.29-10.15,17.92-21.24,6.09a2.19,2.19,0,0,0-2.11.2c-12.48,16-15.44-1.78-22.15-6.2C948.36,375.52,948.94,371.09,954,370.09Z" transform="translate(-637 -1)"/><path class="cls-13" d="M1721.61,882.17c-7.55,9.41-18.6,4.56-27.89,6.85-1.22-5.54-5.51-10-5.47-16l25.5-10.11Z" transform="translate(-637 -1)"/><path class="cls-19" d="M1697.91,922.53c11.91-7.29,27.09-9.43,35.39-22.43,6.37,7.46.29,11.68-4.84,14.49C1713.91,922.55,1699,930,1684,936.94c-8.33,3.86-11.41,1.93-15.59-7.66C1679.08,930.23,1689.42,930.16,1697.91,922.53Z" transform="translate(-637 -1)"/><path class="cls-13" d="M1793.14,907.7c-10.64,3.15-18.77-3.63-27.77-7q0.33-8.23.67-16.45l27.78,2.94Z" transform="translate(-637 -1)"/><path class="cls-14" d="M708.29,893.82l-26.85.24c-3.52-1.07-7.86-1.27-8.41-6.12-0.4-3.61,1.74-5.54,5.32-5.86l36.88-2.59C722.83,889.08,715.81,891.57,708.29,893.82Z" transform="translate(-637 -1)"/><path class="cls-21" d="M1106.2,150.27c-8.84,3-13.12,11.79-20.77,16.29l-7.06,6.64-16.69,12.47c-3.21-.11-8,1.91-6.25-4.76,9.15-4.24,18.57-8.19,20.47-19.89l2.49-1.23,4.3-4.84c5.61-4.79,12.81-7.69,16.89-14.29C1109.28,138.71,1109.4,143.35,1106.2,150.27Z" transform="translate(-637 -1)"/><path class="cls-19" d="M1332.91,930.75a36.2,36.2,0,0,0,23.17-3.39c0.18,8.92-6.86,10.34-12.72,10-14.79-1-29.4,1.28-44.11,1.18-7.89-.06-12.52-3.27-12.7-11.58,12.86,4.71,25.87,7.91,39.6,4Z" transform="translate(-637 -1)"/><path class="cls-19" d="M1751.39,933.14c14.8-1.27,30.05,2.67,44.39-3.88,0.26,9-6.68,10.36-12.67,9.94-16-1.12-31.87,0-47.79-.39-9-.2-14.07-4.13-11.6-14C1732,930.57,1740.76,935,1751.39,933.14Z" transform="translate(-637 -1)"/><path class="cls-19" d="M1417.22,931.07c13.07,0.89,26.75,5.6,37.78-6.1,3.85,7.79,2,13-6.09,13.14-16.95.35-33.93-.39-50.88-1.22-4.58-.23-9.27-2.18-9.14-8.42,7.13,1.37,14.09,4.42,21.58,2.14Z" transform="translate(-637 -1)"/><path class="cls-12" d="M1673.25,462.41l8.19,8.3c0,9.36-5.66,11.88-13.78,11.61s-16.12-.43-16.65-11.52c4.29-3.7,10.49-5.47,12-11.95C1666,461.24,1669.06,463.48,1673.25,462.41Z" transform="translate(-637 -1)"/><path class="cls-19" d="M990.59,934.72a544.62,544.62,0,0,1,70.29,0c-1.45,3.73-4.4,5.29-8.18,5.29-17.1,0-34.2.16-51.29-.35C997.65,939.52,992.52,940,990.59,934.72Z" transform="translate(-637 -1)"/><path class="cls-19" d="M865.74,934.09l69.38-.2c-2.82,6-8.49,6-13.78,6q-22.51.28-45,0C872,939.87,866.55,940.92,865.74,934.09Z" transform="translate(-637 -1)"/><path class="cls-12" d="M816.78,466.24c8.87-6.35,17-3.55,25,2l0.81,2.3c-1.15,12-10,12.27-18.67,11.6-6.36-.49-12.58-2.53-9.94-11.49Z" transform="translate(-637 -1)"/><path class="cls-12" d="M1494.5,461.37c9.62-1.52,18,0,23.28,9.33-2.78,9.73-11.16,8.64-18.41,9.25-6.5.55-10.94-2.4-12.15-9.21C1489.34,467.38,1490.68,463.41,1494.5,461.37Z" transform="translate(-637 -1)"/><path class="cls-12" d="M1075.9,161c-1.89,11.7-11.32,15.66-20.47,19.89-6.59-4.57-6.8-10.61-3.63-17.13,3.32-6.84,9.47-8.22,16.36-7.6,2.62,0.24,5.22.78,7.83,1.18l-0.05,0Z" transform="translate(-637 -1)"/><path class="cls-12" d="M1125.32,816.73c-10.35-1.5-20.21,3.29-30.52,2.36q-0.22-7-.45-14c11.4-1.15,22.79-2.11,33.78,2.48Q1126.73,812.13,1125.32,816.73Z" transform="translate(-637 -1)"/><path class="cls-12" d="M1220.52,814.41l-32.6,0c-3.16-3.4-2-7.63-2.23-11.6l34.79,0Q1220.5,808.64,1220.52,814.41Z" transform="translate(-637 -1)"/><path class="cls-8" d="M1653.2,400.64c-11.08,5.94-15.14-4.72-20.52-9.8-4.59-4.34-8.75-9.17-14-12.83,7,1.46,14.08,2.39,20.83,4.52C1648,385.23,1651.13,392.7,1653.2,400.64Z" transform="translate(-637 -1)"/><path class="cls-10" d="M1751.39,933.14c-10.64,1.87-19.36-2.57-27.67-8.38,5.49-6.62,14.26-6,21.15-9.59C1745.35,921.78,1753.08,925.75,1751.39,933.14Z" transform="translate(-637 -1)"/><path class="cls-19" d="M1056.71,83c-6.28,6.69-13,12.77-22,15.58C1037.56,85.62,1042.42,82.18,1056.71,83Z" transform="translate(-637 -1)"/><path class="cls-17" d="M1807.9,337c3.51-4.59,7.76-7.6,13.93-6.46C1818.71,336,1813.79,337.58,1807.9,337Z" transform="translate(-637 -1)"/><path class="cls-9" d="M1113.71,469.77q0-4.71,0-9.41l57.74,1.25c-2.32,2.83-6.78,4-6.78,8.63Z" transform="translate(-637 -1)"/><path class="cls-12" d="M891.19,470.63c3.87-5.94,8.72-10.49,16.16-11.33,5.21,3.22,13.5,2.55,14.32,11.32-2,8.71-8.88,9.43-15.85,9.36C899.2,479.91,892.71,479,891.19,470.63Z" transform="translate(-637 -1)"/><path class="cls-12" d="M1288.61,470.56c10-14.43,20.41-14.39,30.37.12C1309.86,483.49,1295.32,483.44,1288.61,470.56Z" transform="translate(-637 -1)"/><path class="cls-12" d="M1426.42,470.25c8.23-14,20.23-14,28.45.14-2.32,9.66-10.49,8.95-17.55,9.41C1431,480.22,1427.19,476.71,1426.42,470.25Z" transform="translate(-637 -1)"/><path class="cls-13" d="M755.64,571.17l7.26-16.39c5.09,1,9.06,3.78,12.79,7.26,4.59,4.27,8.21,9.41,4.23,15-4.28,6-10.62,4.45-16.4,1.06A38,38,0,0,0,758.3,576Z" transform="translate(-637 -1)"/><path class="cls-12" d="M1164.63,470.24c0-4.65,4.47-5.8,6.78-8.63a32,32,0,0,1,13.73,0c2.82,2.75,6.29,4.93,7.69,8.9-2.42,10.19-11,9.07-18.25,9.36C1168.74,480.07,1164.13,477.4,1164.63,470.24Z" transform="translate(-637 -1)"/><path class="cls-12" d="M1024.51,461.19c6.08,1.11,11.06,3.86,14.19,9.41-0.51,10.09-8,9.38-14.84,9.47s-13.34-.21-13.66-9.47A19.51,19.51,0,0,1,1024.51,461.19Z" transform="translate(-637 -1)"/><path class="cls-9" d="M1192.84,470.47c-1.41-4-4.88-6.15-7.69-8.9l27.88-.94,0.46,9.84h-20.65Z" transform="translate(-637 -1)"/><path class="cls-8" d="M1791.29,566.52l11.84,7c-0.51,4-2.89,5.89-6.24,3.56S1788.08,572.68,1791.29,566.52Z" transform="translate(-637 -1)"/><path class="cls-19" d="M689.61,840c-3.64-23.92,1.17-47.17,3.37-70.6C689.9,792.89,694.77,816.79,689.61,840Z" transform="translate(-637 -1)"/><path class="cls-21" d="M702.77,629.25c0.83,14.95,2.07,29.93-3,44.5Z" transform="translate(-637 -1)"/><path class="cls-21" d="M696,750.14c-0.5-10.55-1.84-21.17,2.66-31.34Z" transform="translate(-637 -1)"/><path class="cls-19" d="M704.59,599.6Q707,579.83,709.5,560C712.35,570,710.64,589.73,704.59,599.6Z" transform="translate(-637 -1)"/><path class="cls-20" d="M1819,437.82c0.4,4.92.22,9.94,2.42,14.57-5.47,2.67-4.24,7.91-4.26,12.29-0.1,23.67.09,47.34,0.17,71-8.5,4.68-14.12,13.34-23.42,16.9-5.7-3.64-7.29-6.69-7.48-15.33-0.49-21.83,8.12-40.59,14.89-59.62C1806.11,464.22,1808.48,449,1819,437.82Z" transform="translate(-637 -1)"/><path class="cls-19" d="M1764.05,380c2.62-.92,3.36-5.31,7.28-4,1.18,3.68-2.71,5.05-3.39,7.81-1.37,2.28-4.2,4.79-3.88,6.8,2.43,15.31-8.07,27.8-9.62,42.19C1754.13,414.62,1760,397.45,1764.05,380Z" transform="translate(-637 -1)"/><path class="cls-19" d="M1781.49,389.19c0.66-3.6-.23-7.75,4.34-10.64,3,3.18-.3,7.28,1.35,10.39,4.69,15.93-2.92,30.89-3.81,46.44C1777.24,420.2,1789.22,404.27,1781.49,389.19Z" transform="translate(-637 -1)"/><path class="cls-19" d="M1317.79,447.95c-4.21-9.44-4.11-60.25,0-69.13v69.13Z" transform="translate(-637 -1)"/><path class="cls-19" d="M1434.74,381.87c3.58,22.3,3.35,41.94,4.31,61.51C1433.08,439.39,1431.09,413.75,1434.74,381.87Z" transform="translate(-637 -1)"/><path class="cls-22" d="M934.1,419.35c9.58-2.31,11,3.37,11.13,12.41s-3.58,14.26-12,15.32c-8,1-14-6.62-13.92-16.24C919.4,420,920.22,419.33,934.1,419.35Z" transform="translate(-637 -1)"/><path class="cls-12" d="M1146.05,376.74c14.45-10,16.31-20,6.38-34-11.3-16,0-47.63,19-53.1,1.4-.4,3.77-0.92,4.34-0.24,7.76,9.28,20.61,13.49,24.66,26.71,3.66,11.93-2.82,19.17-9.52,26.72-9.61,10.82-7.92,29.35,3.57,37-3.62,7.61-7.12,15.31-15.08,19.58l-6.64,3.2-18.37.08-4-3.38C1143.43,392.81,1146,384.53,1146.05,376.74Z" transform="translate(-637 -1)"/><path class="cls-9" d="M1179.4,399.35c8-4.27,11.46-12,15.07-19.58,3.93-.49,7.81-0.77,11.26,1.75q0.44,8.94.89,17.89Z" transform="translate(-637 -1)"/><path class="cls-9" d="M1146.05,376.74c0,7.79-2.62,16.07,4.33,22.52-8.42,1.38-16.85.49-25.27,0,5.22-7.78,7.29-17.81,16.33-22.88Z" transform="translate(-637 -1)"/><path class="cls-22" d="M1817.35,535.68c-0.09-23.67-.28-47.34-0.17-71,0-4.38-1.21-9.62,4.26-12.29,8.69,13.66,17.23,27.41,26.12,40.94,6.47,9.85,5.63,17.7-4.65,24.39C1834.18,523.39,1825.85,529.67,1817.35,535.68Z" transform="translate(-637 -1)"/><path class="cls-8" d="M741.51,388.79c11.35,6.29,22.93,11.07,36.41,7.59,5.91-1.52,10.94-3.85,14-9.41,1.14,13.44,2.18,26.9,3.46,40.33,0.56,5.9-1.42,8.49-7.68,8.07-6.54-.44-13.13-0.07-19.7-0.1-21.49-.09-16.67,2-21.32-17.11C744.31,408.57,740.55,399,741.51,388.79Z" transform="translate(-637 -1)"/><path class="cls-8" d="M739.54,384.89c1.63,0.87,2.5,2.13,2.08,4C739.07,388.55,739.52,386.61,739.54,384.89Z" transform="translate(-637 -1)"/><path class="cls-9" d="M1207.14,416.93c2,2.75,1.49,5.82,1.14,8.88l-94.63.47,2.07-8,2.73-3.65C1148.07,413.09,1177.56,417,1207.14,416.93Z" transform="translate(-637 -1)"/><path class="cls-9" d="M1154.39,402.63l18.36-.08,33.72,0.41q0.24,5.35.48,10.7c-29-1.43-58-3.57-87.06-1.72,0.06-3.56,1.93-6.38,3.73-9.24Z" transform="translate(-637 -1)"/><path class="cls-23" d="M1119.9,411.94c29.07-1.85,58.05.29,87.06,1.72q0.09,1.64.18,3.27c-29.58.1-59.07-3.83-88.69-2.27Z" transform="translate(-637 -1)"/><path class="cls-23" d="M1154.39,402.63l-30.76.07,1.49-3.46c8.42,0.5,16.85,1.39,25.27,0Z" transform="translate(-637 -1)"/><path class="cls-16" d="M733.46,316.23c-7.35-15,2-26.63,8.22-38.59,2.75-5.31,8.56-4.85,13.28-1.77,5.43,3.53,11.58,4.21,17.63,5.08,19.36,2.78,29.94,18.78,24.57,37.57-6.35.33-7.89-3.73-9.69-9-3.16-9.21-8.44-16.14-19.92-10-1.58.85-3.79,0.85-5.68,0.76-17.2-.89-18.61.07-23,16.27Z" transform="translate(-637 -1)"/><path class="cls-19" d="M733.46,316.23l5.39,0.32c7-2.64,13.62-5.24,19.7,2.57,3.18,4.09,7.31,2.59,10.73-1.34,5-5.77,10.93-5.6,16.26-.65,4.27,4,4.76,9.32.42,13.37-5.82,5.43-12.09,4.8-17.06-1.55-3.47-4.44-6.1-4.47-10.32-.6-10.54,9.66-17.21,7.43-19.88-6.81-0.82-4.38-3.44-3.19-5.7-3.89A2.53,2.53,0,0,1,733.46,316.23Zm51.24,8.15c-0.64-4-2.76-6.39-6.89-6.32-3.45.06-5.88,1.35-6,5.36-0.08,3.74,2,6,5.29,6.28C780.87,330.08,783.79,328.3,784.7,324.38Zm-29.12-.71c-0.62-3.59-3.07-5.6-7-5.52-3.47.08-6.08,1.94-5.86,5.53,0.24,3.85,2.76,6.47,6.84,6C752.55,329.34,755.53,328.08,755.58,323.67Z" transform="translate(-637 -1)"/><path class="cls-9" d="M1208.57,429q0.47,6.77.93,13.55l-97.6.51c-1.3-4.92-1.41-9.73,1.27-14.29Z" transform="translate(-637 -1)"/><path class="cls-9" d="M1210.56,445l1,11.53-98.21.73q-0.16-5.71-.31-11.42Z" transform="translate(-637 -1)"/><path class="cls-23" d="M1113.39,457.3l98.21-.73,1.45,4.05-27.88.94a32,32,0,0,0-13.74,0l-57.74-1.25Z" transform="translate(-637 -1)"/><path class="cls-23" d="M1210.56,445l-97.48.84L1111.9,443l97.6-.51Z" transform="translate(-637 -1)"/><path class="cls-23" d="M1208.57,429l-95.4-.24,0.48-2.44,94.63-.47Q1208.42,427.38,1208.57,429Z" transform="translate(-637 -1)"/><path class="cls-8" d="M1609.44,318.09c0.44,5.43-.53,10.26-6.49,12-5.24,1.57-10.05.67-13.22-4.33-3.41-5.39-7-5.73-10.72-.51-3.36,4.75-7.8,6.51-13.07,4.47-5.07-2-8.19-5.74-7.06-11.74l3.74-8.46c12.38,1.09,24.16,13.81,37.38,1.83,0.94-.85,4.3,1,6.53,1.55Z" transform="translate(-637 -1)"/><path class="cls-12" d="M1606.53,312.92c-2.23-.58-5.6-2.4-6.53-1.55-13.22,12-25-.74-37.38-1.83,2.12-6.18,4-12.76,12.62-11.88C1587.49,298.92,1602.4,294.92,1606.53,312.92Z" transform="translate(-637 -1)"/><path class="cls-23" d="M1206.47,403l-33.72-.41,6.65-3.19,27.23,0.06Q1206.55,401.19,1206.47,403Z" transform="translate(-637 -1)"/><path class="cls-22" d="M1332.91,930.75l-6.76.22c3.39-5.63,5.93-12,12.49-15.91C1340.58,922.32,1333.21,925.2,1332.91,930.75Z" transform="translate(-637 -1)"/><path class="cls-22" d="M1417.22,931.07l-6.75-.46c1.65-5.59-6.65-8.42-3.88-15C1411.9,919.91,1415.72,924.65,1417.22,931.07Z" transform="translate(-637 -1)"/><path class="cls-22" d="M1075.9,161l0-3.7c1.68,0,2.33,1,2.46,2.46Z" transform="translate(-637 -1)"/><path class="cls-12" d="M784.7,324.38c-0.91,3.92-3.83,5.69-7.56,5.32-3.3-.33-5.37-2.54-5.29-6.28,0.09-4,2.51-5.3,6-5.36C781.94,318,784.06,320.35,784.7,324.38Z" transform="translate(-637 -1)"/><path class="cls-12" d="M755.58,323.67c-0.05,4.4-3,5.66-6,6-4.08.48-6.61-2.15-6.84-6-0.22-3.59,2.39-5.46,5.86-5.53C752.51,318.07,755,320.08,755.58,323.67Z" transform="translate(-637 -1)"/><path d="M1044.78,621.12a9.85,9.85,0,0,1-7.49-3.82c-3.31-4.34-4.28-10.63-5.15-15.88q-0.85-5.09-5.58-28.88-3.61-18-4.81-28.95c-4.19,14.74-20.54,51.84-22.34,59.62-1.09,4.73-.64,11.86-5.53,14.58-5.77,3.21-13.78-.54-13.78-7.26L977.91,602c-4.35-18.54-8.56-36.89-14.56-55-2.37-7.15-18.08-34.42-1.91-34.42q4.6,0,7.07,4.75,1.27,2.41,5.16,13.87,4.17,12.13,8.34,29.22l6.86,29.62a358.54,358.54,0,0,0,15.06-40.47c2.44-7.72,8-35,19.37-35s11.3,25,12.17,32.23,2.54,16.13,4.81,26.4l6.08,26.33q9.48-21.58,23.68-58.36c3.15-8.14,4.54-10.41,7.34-20.25,1.46-5.14,5.13-8.29,7.86-8.29q7.14,0,7.14,6.7c0,3.82-7.05,21.42-9,25.87-5.77,13.3-11.93,26.44-17.51,39.83-4.37,10.47-7.84,21.84-13.45,31.74A8.31,8.31,0,0,1,1044.78,621.12Z" transform="translate(-637 -1)"/><path d="M1173.55,524.35a30.45,30.45,0,0,1-7-1,88.1,88.1,0,0,0-45.59,1.94,182.32,182.32,0,0,1-.65,32.53l42-3.88c4.68-.43,13.48-0.35,13.51,6.48,0,6-7.21,7.09-11.63,7.46l-44.77,3.69a216,216,0,0,0-1,26.1c0.08,3.23.49,6.95,3.17,8.74,1.57,1,3.56,1.16,5.45,1.22a333.21,333.21,0,0,0,37-.82c2.26-.18,4.65-0.36,6.71.59,4.4,2,4.66,9.42.41,11.74a12.7,12.7,0,0,1-4.6,1.19,179.16,179.16,0,0,1-40.73.38c-4-.42-8.07-1-11.52-3-4.79-2.83-7.69-8.15-8.85-13.6-2.25-10.56-1-22.09-.26-32.73q0.62-9.33,1.25-18.66c0.61-9.12,1.22-18.31.07-27.38-0.45-3.56-1.16-7.25,0-10.66s4.86-6.28,8.2-5a34.14,34.14,0,0,0,3.18,1.56,7.9,7.9,0,0,0,4-.37,109.94,109.94,0,0,1,46.81-1.75c4.8,0.84,15.08,4.66,11.26,11.84C1178.61,523.49,1176.18,524.3,1173.55,524.35Z" transform="translate(-637 -1)"/><path d="M1316.81,616.9q-6.5,0-11.31-15.81-1.84-6-4.6-21.11c0.18,0.74-36.79,4.81-37.69,7q-3.54,8.78-12.09,25.66c-3.1,6.12-13.44,4-13.44-3q0-3.21,10.68-24.46a6.88,6.88,0,0,1-1.2-4q0-5.43,6.93-7,8.06-14.34,20.37-33,16.76-25.39,20.86-25.39,5.58,0,7.64,7.37l4.46,22.52,10.53,46.57c2,5.22,6.08,12.1,6.08,17.82C1324,613.9,1320.45,616.9,1316.81,616.9Zm-25-76.59-20.22,30.89q8.55-2.08,25.95-5Z" transform="translate(-637 -1)"/><path d="M1413.94,615.31a6.66,6.66,0,0,1-5-1.82q-23.39-21.9-52-29.48c1.72,0.53.89,23.84,0.88,26.32a6.9,6.9,0,0,1-7.06,6.91,7,7,0,0,1-7.08-6.9c0-10.53-1.06-21-1.06-31.56a173.75,173.75,0,0,1,1.42-18.36c1.52-13.09.07-25.5,0.07-38.53,0-5.5,4-10.32,9.69-9.92l17,1.27a49.11,49.11,0,0,1,16.33,4.49c19,9.59,42.2,34.48,18.88,53.21a54.21,54.21,0,0,1-19.59,9.58q22,11.19,32.88,23.58C1423.62,609,1419.08,615,1413.94,615.31Zm-45-88.27-10.46-.8,0.71,8.11a99.51,99.51,0,0,1-.42,21.44l-1.49,13.33c0-.1,5.72.14,6.22,0.14q18,0,27-4.56c3.82-1.94,11.1-6.8,11.1-11.79q0-9.31-11.17-17.35A44.17,44.17,0,0,0,1368.92,527Z" transform="translate(-637 -1)"/><path d="M1504.18,524.6c-2.33,0-4.82-.94-7.13-1.44a85.93,85.93,0,0,0-30.77-1,138.16,138.16,0,0,0-14.78,3.08,50.65,50.65,0,0,1,.64,7q0,9.31-1.2,25.6c15.73-1.43,31.91-4.16,47.73-4.16,4,0,7.36,2.75,7.36,6.9s-2.17,6.34-6.5,6.84q-24.76,2.07-49.5,4.22c-2.21.21-.38,32.16,1.63,34.38q1.7,1.88,11.1,1.88,4.39,0,13.19-.23c7.14-.19,14.44-1.11,21.53-1.11q7.49,0,7.49,7,0,5.63-6,6.77-6.64,1.27-28.77,1.27-21.92,0-28.14-5.5c-10.91-9.64-7.12-34.77-7.08-47.55,0-2.78,1.46-5.22,1.63-7.67q1.42-19.36,1.42-28.61c0-4.89-1.42-9.66-1.42-14.54q0-8,7.07-8a7.29,7.29,0,0,1,5.09,1.94,153.75,153.75,0,0,1,16-3.22c13.42-1.92,28.76-2.06,41.61,2.81q4.73,1.81,4.74,6.43A6.86,6.86,0,0,1,1504.18,524.6Z" transform="translate(-637 -1)"/><path d="M1040.43,670.15a24.58,24.58,0,0,0-1.06,8.24c0,4,.28,8,0.28,11.93,0,13.35-2.47,26.58-2.47,39.94,0,10.23,1.56,20.39,1.56,30.62a6.8,6.8,0,0,1-13.58,0c0-10.23-1.55-20.39-1.55-30.62q0-4.89.35-9.92A191.31,191.31,0,0,0,994,723.75l-29.69,5.5a162.73,162.73,0,0,1-1.27,17.12,161,161,0,0,0-1.28,17.18,6.75,6.75,0,0,1-6.78,6.57,6.63,6.63,0,0,1-6.79-6.57q0-7.1,1.24-21.21t1.24-21.2c0-3.71-.14-7.42-0.28-11.13a257.1,257.1,0,0,1,.43-27.1q0.7-10.61.71-15.9c0-8.31,13.58-8.34,13.58,0q0,5.36-.75,16c-0.77,11.07-.59,21.93-0.32,33l30.33-5.43a192.79,192.79,0,0,1,30.62-3.35q0.77-9.58.78-28.88a32.12,32.12,0,0,1,1.76-10.31c2.26-6.72,13.51-10.55,13.51-.68A8.67,8.67,0,0,1,1040.43,670.15Z" transform="translate(-637 -1)"/><path d="M1116.37,681.07a93.2,93.2,0,0,1-11.39-.87l-11.38-1.41Q1092,698.29,1092,716q0,4.69.28,11.59a170.06,170.06,0,0,1-.21,23l22.27-.27a6.89,6.89,0,0,1,5.71,2.8,7.26,7.26,0,0,1,0,8.07,6.88,6.88,0,0,1-5.76,2.86q-4.12,0-12.51.18c-8.56.19-22.54,1.2-31.05,2.1a81.65,81.65,0,0,1-8.19.54c-6,0-9.35-7.36-5-11.73a6.79,6.79,0,0,1,5-2,132.28,132.28,0,0,0,15.2-1.41c2-.34.36-22.16,0.25-23.69q-0.46-6.67-.46-11.23,0-15.48,2-38.66l-9.19.27c-5.5.16-16.34,2.17-16.34-6.7q0-6.23,6.65-6.83,5.73-.54,21.43-0.54a270.71,270.71,0,0,1,35.28,2.88q6.29,0.87,6.3,7.16C1123.65,678.52,1120.16,681.07,1116.37,681.07Z" transform="translate(-637 -1)"/><path d="M1207.43,765.09a7,7,0,0,1-5-1.94q-23.4-21.91-52-29.48c0.38,8.76.92,17.56,0.92,26.33a6.73,6.73,0,0,1-2.94,5.71,7.73,7.73,0,0,1-8.25,0,6.73,6.73,0,0,1-2.94-5.71q0-5.46-.56-16.42a219.63,219.63,0,0,1,1.09-35.12,126.43,126.43,0,0,0,.56-26.79q-0.67-6.7-.67-10.12c0-5.49,4-10.32,9.69-9.92l17,1.27a49,49,0,0,1,16.33,4.49q28.64,14.41,28.64,35.18,0,10.19-9.76,18a54.27,54.27,0,0,1-19.59,9.58q22,11.19,32.88,23.58C1217.21,758.77,1212.67,764.91,1207.43,765.09Zm-45-88.38-10.47-.8c0.87,9.95,1.43,19.59.28,29.55l-1.48,13.33c0.11-.3,5.73.14,6.22,0.14q18,0,27-4.56c4.91-2.58,10.85-6.23,11.09-12.37,0.27-7-6-13.06-11.16-16.78A44.18,44.18,0,0,0,1162.4,676.71Z" transform="translate(-637 -1)"/><path d="M1286.49,681.07a93.2,93.2,0,0,1-11.38-.87l-11.38-1.41q-1.63,19.5-1.63,37.26c0,7.73.57,15.45,0.57,23.18q0,6.3-.49,11.46l22.27-.27a6.87,6.87,0,0,1,5.59,2.64,5.12,5.12,0,0,1,1,2.53c1.58,11.59-12.1,8.59-18.51,8.73-8.69.18-17.21,0.25-25.84,1.4a115.42,115.42,0,0,1-14,1.24c-6.05,0-9.36-7.36-5-11.73a6.79,6.79,0,0,1,5-2,132.37,132.37,0,0,0,15.2-1.41c2-.37.36-22.08,0.25-23.69q-0.47-6.67-.46-11.23,0-15.48,2-38.66l-9.19.27c-4.34.09-10.78,1.59-14.29-1.74a6.54,6.54,0,0,1-2.05-5q0-6.23,6.65-6.83,5.73-.54,21.43-0.54a270.71,270.71,0,0,1,35.28,2.88q6.3,0.87,6.3,7.16C1293.78,678.55,1290.3,681.07,1286.49,681.07Z" transform="translate(-637 -1)"/><path d="M1406.73,749.68q-0.06,2.12-.12,4.24a23.91,23.91,0,0,1-1.12,7.94c-1,2.51-3,4.78-5.63,5.29-3.64.7-7.14-2-9.88-4.2a122.69,122.69,0,0,1-12.28-11,712.9,712.9,0,0,1-54.9-64.07q-0.06,32.92-.11,65.83c0,4.41,0,10.13-3,13.74-3.45,4.2-9,2.87-11.27-2-1.51-3.3-1.24-7.11-1-10.74a499.61,499.61,0,0,0-.51-79.48c-0.43-4.93-.38-11,3.9-13.45,2.84-1.64,6.57-.86,9.26,1s4.55,4.69,6.39,7.41a437.68,437.68,0,0,0,66.5,77.23c0.6-23.38,1.17-47.06-4.07-69.85-0.69-3-1.49-6.08-1.07-9.14,0.59-4.31,4.25-8.69,9.6-6.28a10.27,10.27,0,0,1,4.93,5.36c3.4,7.63,4.06,16,4.45,24.34C1407.72,711.1,1407.27,730.4,1406.73,749.68Z" transform="translate(-637 -1)"/><path d="M1505.26,724q-4.38,20.57-18.42,32.87a48.62,48.62,0,0,1-33.12,12.3q-17.4,0-26.09-9.22t-8.7-27.64q0-17.35,8.66-35.75t22.24-29.72q9-7.57,19.16-7.57,6.43,0,17,4,12.87,4.83,12.87,10.65c0,6.41-6.91,8.15-11.6,5.37q-10.81-6.23-18.24-6.23c-8.53,0-14.7,8.78-19.45,14.75q-16.33,20.5-16.33,44.49,0,12.6,4.1,17.62,4.45,5.5,16.4,5.5a33.84,33.84,0,0,0,22-7.57q9.83-8,13.72-23-19.58.94-33.59,7.17c-4.49,2-10.25-.88-10.25-6.37q0-3.68,3.75-5.9Q1464.6,711,1502,711C1509.23,711,1511.93,720.81,1505.26,724Z" transform="translate(-637 -1)"/><path d="M1535.24,763a5.43,5.43,0,0,1-2,4.19,6.73,6.73,0,0,1-4.56,1.78c-1.89,0-3.77-1.16-5.66-3.49s-2.76-4.2-2.76-6a5.32,5.32,0,0,1,2-4.16,6.89,6.89,0,0,1,4.63-1.74c1.84,0,3.72,1.16,5.66,3.48S1535.24,761.23,1535.24,763Zm-0.07-100v74.58q0,6-6.29,6t-6.29-6V663q0-6,6.29-6T1535.17,663Z" transform="translate(-637 -1)"/><line class="cls-24" x1="171.09" y1="941.92" x2="1062.55" y2="941.92"/></svg>