<svg id="Background_Complete" data-name="Background Complete" xmlns="http://www.w3.org/2000/svg" viewBox="0 0 458.86 390.68"><defs><style>.cls-1{fill:#f5f5f5;}.cls-2{fill:#ebebeb;}.cls-3{fill:#e0e0e0;}.cls-4,.cls-8{fill:#fff;}.cls-5{opacity:0.24;}.cls-6{fill:#263238;}.cls-7{fill:#fced5a;}.cls-8{opacity:0.5;}.cls-9{opacity:0.3;}.cls-10{fill:#455a64;}.cls-11{opacity:0.2;}.cls-12{fill:#ffbe9d;}.cls-13{fill:#eb996e;}</style></defs><title>features-2</title><polygon class="cls-1" points="371.14 319.88 371.14 340.63 401.48 340.63 434.94 340.63 434.94 319.88 371.14 319.88"/><polygon class="cls-2" points="368.46 314.08 368.46 319.88 437.17 319.88 437.17 314.08 401.48 314.08 368.46 314.08"/><polygon class="cls-3" points="402.81 340.63 434.94 340.63 434.94 319.88 437.17 319.88 437.17 314.08 401.48 314.08 401.48 319.35 402.81 340.63"/><rect class="cls-3" x="380.06" y="323.23" width="12.94" height="3.12"/><rect class="cls-3" x="378.39" y="330.26" width="16.61" height="6.59"/><path class="cls-2" d="M471.38,447.3L469.86,124.4h-6.25V188H447.46l-0.3-63.59h-6.25V188H385.35l-0.3-63.59H378.8V188H362.7l-0.3-63.59h-6.25V447.3h7.78L363.72,404H378.8V447.3h7.77L386.37,404h54.54V447.3h7.78L448.48,404h15.13V447.3h7.77ZM370.85,361.18l-5.59-23.93h11.47Zm8-22.47v56.54l-6.77-29Zm0-82.18-6.77-29L378.8,200v56.54Zm-1.21,5.19h-14l7.16-29.13Zm-6.74-39.26L364.45,195h13.13Zm-1.24,5.06L363,254.35l-0.26-56.24ZM363.42,339.7l6.19,26.54-6,24.23Zm7.38,31.61,6,25.6H364.5Zm-7.17-41.12-0.05-.22-0.2,0-0.29-61.24H378.8v61.41H363.62Zm22.12-61.41h55.17v61.41H386Zm69.43-36.19,6.8,29.13H448Zm-7.4,20.21-0.25-53L454,227.51Zm15.84,5.6-7.2-30.87,7.2-29.32V258.4Zm0,3.22v0.1h-0.44Zm0,78.77v53.09l-6.36-27.23Zm-7.54,20.79-5.59-23.93H462Zm-0.85-138.72L448.82,195H462Zm8.39,46.32v61.41H448.84l-0.05-.22-0.65.15-0.29-61.34h15.77Zm-8.78,97.46-6.4,26.06-0.26-54.6Zm1.18,5.07,6,25.6H449.72ZM440.91,195v66.67H385.7L385.39,195h55.52ZM387.34,396.91h-1l-0.28-59.67h54.85v59.67H387.34Z" transform="translate(-22.44 -56.75)"/><polygon class="cls-3" points="364.89 205.29 364.89 198 416.36 198 416.52 205.29 364.89 205.29"/><path class="cls-4" d="M438.83,255.94s-45.65.34-48.61,1c-0.64.15-1.28,3,0,3.21s48.61,0.64,48.61.64v-4.88Z" transform="translate(-22.44 -56.75)"/><polygon class="cls-2" points="370.87 197.71 370.87 190.42 411.64 190.42 411.77 197.71 370.87 197.71"/><path class="cls-4" d="M434.1,248.37s-36.16.34-38.5,1c-0.5.15-1,3,0,3.21s38.5,0.64,38.5.64v-4.88Z" transform="translate(-22.44 -56.75)"/><polygon class="cls-3" points="370.69 190.51 370.69 183.23 411.46 183.23 411.59 190.51 370.69 190.51"/><path class="cls-4" d="M433.92,241.17s-36.16.33-38.5,1c-0.5.15-1,3,0,3.21s38.5,0.64,38.5.64v-4.88Z" transform="translate(-22.44 -56.75)"/><rect class="cls-3" x="408.14" y="82.98" width="10.33" height="48.13"/><circle class="cls-4" cx="413.51" cy="119.57" r="2.05"/><rect class="cls-4" x="411.84" y="95.74" width="3.16" height="19.67"/><rect class="cls-2" x="397.65" y="82.98" width="10.33" height="48.13"/><circle class="cls-4" cx="403.02" cy="119.57" r="2.05"/><rect class="cls-4" x="401.35" y="95.74" width="3.16" height="19.67"/><rect class="cls-1" x="387.66" y="82.98" width="10.33" height="48.13"/><circle class="cls-4" cx="393.03" cy="119.57" r="2.05"/><rect class="cls-4" x="391.36" y="95.74" width="3.16" height="19.67"/><rect class="cls-3" x="408.14" y="225.43" width="10.33" height="48.13"/><circle class="cls-4" cx="413.51" cy="262.02" r="2.05"/><rect class="cls-4" x="411.84" y="238.18" width="3.16" height="19.67"/><rect class="cls-2" x="397.65" y="225.43" width="10.33" height="48.13"/><circle class="cls-4" cx="403.02" cy="262.02" r="2.05"/><rect class="cls-4" x="401.35" y="238.18" width="3.16" height="19.67"/><rect class="cls-1" x="387.66" y="225.43" width="10.33" height="48.13"/><circle class="cls-4" cx="393.03" cy="262.02" r="2.05"/><rect class="cls-4" x="391.36" y="238.18" width="3.16" height="19.67"/><polygon class="cls-3" points="374.89 130.38 387.3 88.04 383.02 86.16 370.29 128.85 374.89 130.38"/><polygon class="cls-2" points="82.39 132.84 32.85 132.84 32.85 197.43 82.39 198.67 82.39 132.84"/><polygon class="cls-4" points="79.13 135.14 35.78 135.14 35.78 193.72 79.13 195.18 79.13 135.14"/><polygon class="cls-2" points="71.54 145.78 42.77 144.69 42.77 185.63 71.54 185.63 71.54 145.78"/><polygon class="cls-1" points="42.77 185.63 71.54 164.6 42.77 144.69 42.77 185.63"/><path class="cls-1" d="M146.43,437.82c-1.18-1-3.83-4.21-1.79-7.94,0.75-1.37,2.33-2,3.77-2.64a15.32,15.32,0,0,0,4.13-2.13c2.24-1.9,2.86-5,4.35-7.58,1.71-2.91,4.89-5.08,8.26-4.93,3.85,0.17,7.07,3.31,8.53,6.88s1.51,7.54,1.54,11.4c0,2.13-.08,4.54-1.65,6s-3.64,1.34-5.6,1.29l-21.07-.64" transform="translate(-22.44 -56.75)"/><path class="cls-2" d="M183.33,387.8H133L142,441.65a6,6,0,0,0,4.3,4.79l0.18,0c0.15,0,.29.09,0.45,0.12a6.32,6.32,0,0,0,1,.12v0.05l0.25,0h22.45a6.33,6.33,0,0,0,1.23-.12,6.05,6.05,0,0,0,5.1-5.26l4.37-37.11,0.2-1.48h0l1.73-14.7Zm-9.5,34.35h-5.17l0.52-15.63h6Zm1.84-15.63h4.95l-1.84,15.63h-4.45Zm-14.77,33-0.31-13.58H168l-0.45,13.58h-6.68Zm-8-13.58h7.23l0.31,13.58h-6.49Zm0.56,13.58h-6.06l-2.14-13.58h7.14Zm-0.85-17.33-1.22-15.63h8.3L160,422.15h-7.44Zm7.94,0-0.36-15.63h8.54l-0.52,15.63h-7.66Zm-0.45-19.38-0.33-14.47h9.57l-0.48,14.47h-8.75Zm-0.5,0h-8.5l-1.13-14.47h9.3Zm-9,0h-9l-0.89-5.59c-0.94-5.85-1.29-8.05-1.49-8.88h10.25Zm0.29,3.75,1.22,15.63h-7.44l-0.76-4.8-1.72-10.83h8.69Zm-6.73,15.63h-4.86l-2.63-15.63h5C142.41,411.35,143.26,416.73,144.12,422.15Zm0.59,3.75,2.14,13.58h-4.67l-2.29-13.58h4.82Zm23.37,13.58,0.45-13.58h5l-1.17,13.58h-4.26Zm1.23-36.71,0.48-14.47h6.95l-1.24,14.47h-6.19ZM138.7,388.3c0.2,1,1.12,6.74,2.35,14.47H136l-2.44-14.47h5.14Zm38,51.18h-3.89L174,425.9h4.33Zm4.33-36.71H176l1.24-14.47h5.53Z" transform="translate(-22.44 -56.75)"/><path class="cls-1" d="M35.7,360.06c0.89,0.15,1.88.38,3,.49s2.35,0.3,3.68.36,2.74,0.1,4.23.12a59.79,59.79,0,0,0,9.65-1,59.81,59.81,0,0,0,9.32-2.68c1.38-.57,2.7-1.08,3.89-1.69s2.29-1.15,3.28-1.7,1.85-1.1,2.61-1.57,1.41-.91,1.92-1.28l1-.66H32.55v8.92l0.9,0.21C34.06,359.74,34.82,359.92,35.7,360.06Z" transform="translate(-22.44 -56.75)"/><path class="cls-1" d="M63,443.33a33.66,33.66,0,0,0-9.74,1.26A25.07,25.07,0,0,0,47.72,447h37.4c-3.19-.64-6.56-1.43-10.11-2.16A64,64,0,0,0,63,443.33Z" transform="translate(-22.44 -56.75)"/><path class="cls-1" d="M109,437.22c-4.24-.67-9.37-0.16-15,0.36a65.34,65.34,0,0,1-9,.25c-3.11-.13-6.31-0.47-9.58-0.87-6.52-.82-12.74-1.65-18.41-1.4a40.23,40.23,0,0,0-14.59,3.26,41.4,41.4,0,0,0-8.75,5.12c-0.44.33-.81,0.63-1.15,0.9V447H47.24a22.9,22.9,0,0,1,5.91-2.8A32.92,32.92,0,0,1,63,442.75a61.83,61.83,0,0,1,12.12,1.44c4.24,0.86,8.23,1.86,11.89,2.56L88.25,447H118v-6.44A21.22,21.22,0,0,0,109,437.22Z" transform="translate(-22.44 -56.75)"/><path class="cls-1" d="M42.27,438.41A40,40,0,0,1,57,435c5.74-.28,12,0.54,18.51,1.35,3.26,0.4,6.44.74,9.53,0.88A65.75,65.75,0,0,0,94,437c5.65-.49,10.84-1,15.15-0.22A21.08,21.08,0,0,1,118,440.2V428.91a27.53,27.53,0,0,0-7.61-1.06c-8.5-.29-19.79,4.34-32.93,4a79.17,79.17,0,0,1-18.19-2.21c-5.5-1.32-10.22-3.21-14.32-4.28A32.52,32.52,0,0,0,35.09,424a24.68,24.68,0,0,0-2.54.24v20.34c0.3-.26.62-0.54,1-0.84A39.08,39.08,0,0,1,42.27,438.41Z" transform="translate(-22.44 -56.75)"/><path class="cls-1" d="M35.84,386.49c2.28,0.2,5.41,1.33,9.07,3A52,52,0,0,0,51,391.83a39.92,39.92,0,0,0,7.37,1.37,64.5,64.5,0,0,0,17.16-1.06c6-1.07,11.7-2.58,16.91-3.7a100.8,100.8,0,0,1,14-2.22,49.6,49.6,0,0,1,9.56.16c0.81,0.09,1.48.2,2,.3V371.61l-0.89-.71a57.67,57.67,0,0,0-5.88-4.25,20.34,20.34,0,0,0-10-3.33c-4-.13-8.31,1.44-12.49,3.48a101,101,0,0,0-11.48,6.49c-1.66,1.12-3.43,2.12-4.13,3.69a2,2,0,0,0,.3,2.2,5.55,5.55,0,0,0,1.89,1.3,19.17,19.17,0,0,0,6.93,1.85c1.71,0.12,2.66,0,2.66.08a2.81,2.81,0,0,1-.69.11,16.13,16.13,0,0,1-2,.06,18.4,18.4,0,0,1-7.11-1.7,5.94,5.94,0,0,1-2.08-1.39,2.56,2.56,0,0,1-.41-2.71c0.81-1.83,2.66-2.83,4.29-4a96,96,0,0,1,11.52-6.58c4.21-2.06,8.6-3.66,12.78-3.5a20.47,20.47,0,0,1,10.23,3.53,49,49,0,0,1,5.8,4.45l0.73,0.65V358.89a35.17,35.17,0,0,0-20-4.25,32.11,32.11,0,0,0-8.86,2.06,63.06,63.06,0,0,0-8.76,4.47,57.74,57.74,0,0,1-8.89,4.44,33.46,33.46,0,0,1-9.1,1.78c-5.91.34-11.19-.25-15.62-0.32a46.94,46.94,0,0,0-10.43.7c-0.6.13-1.15,0.23-1.61,0.35l-1.16.34a6.21,6.21,0,0,1-1,.24,5.85,5.85,0,0,1,.93-0.36l1.15-.4c0.46-.14,1-0.25,1.61-0.41a44.17,44.17,0,0,1,10.49-.91c4.45,0,9.74.56,15.57,0.19A33.16,33.16,0,0,0,71.29,365a58,58,0,0,0,8.79-4.4,62.65,62.65,0,0,1,8.85-4.5,32.39,32.39,0,0,1,9-2.06,35.75,35.75,0,0,1,15.43,2.22,34.82,34.82,0,0,1,4.63,2.19v-8H78.49l-1.06.86a20.76,20.76,0,0,1-1.87,1.37c-0.75.5-1.59,1.11-2.58,1.66s-2.06,1.21-3.27,1.79-2.52,1.17-3.9,1.76a56.83,56.83,0,0,1-9.41,2.75,56.76,56.76,0,0,1-9.76.95c-1.51,0-2.94,0-4.28-.18s-2.58-.26-3.7-0.44-2.13-.4-3-0.58a20.76,20.76,0,0,1-2.25-.58l-0.84-.25v19.17c0.67-.23,1.55-0.49,2.62-0.75a41.61,41.61,0,0,1,20.45.24,28.89,28.89,0,0,1,3,1,4,4,0,0,1,1,.47c0,0.1-1.58-.42-4.13-1a48,48,0,0,0-20.25-.24c-1.12.23-2,.44-2.72,0.61v7.52A10.87,10.87,0,0,1,35.84,386.49Zm52.5-11.74a1.92,1.92,0,0,1,.52-0.67,3.92,3.92,0,0,1,1.38-.74,30.31,30.31,0,0,1,19.71.79,27.52,27.52,0,0,1,5.38,2.79c0.61,0.38,1,.75,1.33,1a2,2,0,0,1,.43.38,41,41,0,0,0-7.3-3.72,30.94,30.94,0,0,0-8.65-1.83,30.08,30.08,0,0,0-10.72,1.22,3.3,3.3,0,0,0-1.15.62,0.84,0.84,0,0,0-.37.91c0.23,0.63,1.36.69,2.21,0.89l5.18,1.06,8.76,1.83,5.9,1.29,1.6,0.38a2,2,0,0,1,.55.17,2,2,0,0,1-.57,0l-1.62-.27L105,379.67,96.17,378,91,377c-0.46-.1-0.89-0.16-1.38-0.29a1.76,1.76,0,0,1-1.3-1A1.23,1.23,0,0,1,88.34,374.75Zm-37.85,7.38a41.05,41.05,0,0,0,5.09,2.34,37.78,37.78,0,0,0,18.16,2.11c7.21-.84,12.95-4.5,17.67-5.53A17.67,17.67,0,0,1,97,380.5a10.62,10.62,0,0,1,1.53.22,1.71,1.71,0,0,1,.52.16c0,0.06-.73-0.11-2.06-0.14a19.1,19.1,0,0,0-5.52.75,65.34,65.34,0,0,0-7.79,2.94,37.52,37.52,0,0,1-9.9,2.78,36.68,36.68,0,0,1-18.4-2.32,34,34,0,0,1-5.06-2.55,13.09,13.09,0,0,1-1.69-1.21A13.05,13.05,0,0,1,50.49,382.13Z" transform="translate(-22.44 -56.75)"/><path class="cls-1" d="M45.09,424.94c4.14,1,8.88,2.88,14.34,4.15a80.54,80.54,0,0,0,18.06,2.14c13,0.33,24.27-4.22,32.93-3.84a27,27,0,0,1,7.6,1.19v-12.1l-2.55.31c-3.63.36-8.64,1.07-14.25,1.19a41.86,41.86,0,0,1-7.88-.56,28.72,28.72,0,0,1-6.21-1.79,20.92,20.92,0,0,1-3.82-2.08,10.62,10.62,0,0,1-.94-0.72,1,1,0,0,1-.29-0.29,37.09,37.09,0,0,0,5.22,2.68,30.49,30.49,0,0,0,6.13,1.64,44.43,44.43,0,0,0,7.78.5c5.55-.12,10.57-0.76,14.21-1l2.59-.19V386.82c-0.54-.07-1.22-0.15-2-0.21a54.23,54.23,0,0,0-9.49,0A106.34,106.34,0,0,0,92.58,389c-5.19,1.15-10.85,2.68-16.92,3.75a63.73,63.73,0,0,1-17.32,1,39.74,39.74,0,0,1-7.46-1.45,50.47,50.47,0,0,1-6.14-2.45c-3.64-1.71-6.69-2.87-8.92-3.15a14.43,14.43,0,0,0-3.25-.12v20.77a7.45,7.45,0,0,1,.51-0.55c1.65-1.67,4.75-3.2,8.73-4.24s8.92-1.46,14.28-2.16a110.21,110.21,0,0,0,17.11-4.09,125.15,125.15,0,0,1,17.17-4.28,73.27,73.27,0,0,1,14.43-.77,69.9,69.9,0,0,1,9.68,1.13c1.13,0.22,2,.41,2.59.56a5,5,0,0,1,.89.25,5.05,5.05,0,0,1-.91-0.13c-0.59-.11-1.47-0.26-2.6-0.44a79.61,79.61,0,0,0-9.65-.92,75.77,75.77,0,0,0-14.32.9,130.1,130.1,0,0,0-17.08,4.31A106.86,106.86,0,0,1,56.14,401c-5.4.67-10.28,1-14.25,2s-7,2.42-8.67,4a7.71,7.71,0,0,0-.68.72v8.72l0.31,0.16,2.26,1.2a88.56,88.56,0,0,0,8.57,3.83A83.53,83.53,0,0,0,74,427.19c12.16,0.14,22.71-3.61,30.67-4.34a35.38,35.38,0,0,1,9.43.08l1.46,0.26,1.05,0.27a4.66,4.66,0,0,1,.85.27,4.91,4.91,0,0,1-.88-0.14l-1.06-.21-1.46-.2a37.52,37.52,0,0,0-9.35.12c-3.94.46-8.54,1.53-13.69,2.63A81,81,0,0,1,43.53,422,76,76,0,0,1,35,418l-2.21-1.31-0.25-.16v7.55a19.49,19.49,0,0,1,2.53-.35A31.16,31.16,0,0,1,45.09,424.94Zm24.19-19.58a67.4,67.4,0,0,0-9.55,5.79,2.15,2.15,0,0,0-1,1.7,1.67,1.67,0,0,0,1.1,1.35,5.57,5.57,0,0,0,3.12.2,5.29,5.29,0,0,1,2.08.09,1.77,1.77,0,0,1,.65.33s-0.23-.1-0.68-0.21a5.71,5.71,0,0,0-2,0,5.69,5.69,0,0,1-3.29-.12,2,2,0,0,1-1.35-1.64,2.55,2.55,0,0,1,1.17-2.07,64,64,0,0,1,9.57-6A66,66,0,0,1,81.94,400a65.17,65.17,0,0,1,24.9-1.56c1.59,0.24,3,.43,4.27.73s2.32,0.48,3.18.76l2,0.59a3.13,3.13,0,0,1,.68.25,3.17,3.17,0,0,1-.71-0.12l-2-.47c-0.86-.24-1.94-0.41-3.19-0.65s-2.67-.43-4.25-0.64A67.78,67.78,0,0,0,69.28,405.37Zm9.25,8.14a6.31,6.31,0,0,1-1.48-.07,2.73,2.73,0,0,1-2-1.31,1.81,1.81,0,0,1-.15-1.55,3.52,3.52,0,0,1,1.1-1.29,24.78,24.78,0,0,1,6.85-4.19,31.05,31.05,0,0,1,9.58-2.2A43.6,43.6,0,0,1,110,405.65c2.15,0.77,3.84,1.5,5,2,0.58,0.26,1,.49,1.32.64a1.58,1.58,0,0,1,.44.27,13.34,13.34,0,0,1-1.85-.68c-1.18-.46-2.89-1.13-5-1.84a45.67,45.67,0,0,0-17.34-2.54,31.48,31.48,0,0,0-9.4,2.11,25.41,25.41,0,0,0-6.78,4,3.21,3.21,0,0,0-1,1.11,1.44,1.44,0,0,0,.09,1.23,2.5,2.5,0,0,0,1.71,1.24c1.22,0.25,1.95.17,1.94,0.24A1.53,1.53,0,0,1,78.52,413.51Z" transform="translate(-22.44 -56.75)"/><path class="cls-2" d="M35.8,386.73c2.23,0.27,5.28,1.44,8.92,3.15a50.47,50.47,0,0,0,6.14,2.45,39.74,39.74,0,0,0,7.46,1.45,63.73,63.73,0,0,0,17.32-1c6.07-1.08,11.73-2.6,16.92-3.75a106.34,106.34,0,0,1,13.91-2.35,54.23,54.23,0,0,1,9.49,0c0.82,0.07,1.5.15,2,.21v-0.16c-0.53-.1-1.2-0.21-2-0.3a49.6,49.6,0,0,0-9.56-.16,100.8,100.8,0,0,0-14,2.22c-5.21,1.12-10.87,2.63-16.91,3.7a64.5,64.5,0,0,1-17.16,1.06A39.92,39.92,0,0,1,51,391.83a52,52,0,0,1-6.11-2.35c-3.66-1.66-6.79-2.78-9.07-3a10.87,10.87,0,0,0-3.29.05v0.06A14.43,14.43,0,0,1,35.8,386.73Z" transform="translate(-22.44 -56.75)"/><path class="cls-2" d="M35.63,360.4c0.89,0.18,1.89.44,3,.58s2.36,0.36,3.7.44,2.77,0.15,4.28.18a56.76,56.76,0,0,0,9.76-.95,56.83,56.83,0,0,0,9.41-2.75c1.39-.59,2.72-1.12,3.9-1.76s2.29-1.2,3.27-1.79,1.83-1.16,2.58-1.66a20.76,20.76,0,0,0,1.87-1.37l1.06-.86H78.24l-1,.66c-0.51.37-1.15,0.81-1.92,1.28s-1.61,1-2.61,1.57-2.07,1.15-3.28,1.7-2.51,1.12-3.89,1.69A59.81,59.81,0,0,1,56.27,360a59.79,59.79,0,0,1-9.65,1c-1.49,0-2.91,0-4.23-.12s-2.56-.21-3.68-0.36-2.12-.33-3-0.49-1.64-.32-2.26-0.47l-0.9-.21v0.19l0.84,0.25A20.76,20.76,0,0,0,35.63,360.4Z" transform="translate(-22.44 -56.75)"/><path class="cls-2" d="M98,354.06a32.39,32.39,0,0,0-9,2.06,62.65,62.65,0,0,0-8.85,4.5,58,58,0,0,1-8.79,4.4,33.16,33.16,0,0,1-8.92,1.78c-5.83.37-11.12-.17-15.57-0.19a44.17,44.17,0,0,0-10.49.91c-0.61.15-1.15,0.27-1.61,0.41l-1.15.4a5.85,5.85,0,0,0-.93.36,6.21,6.21,0,0,0,1-.24l1.16-.34c0.46-.12,1-0.21,1.61-0.35a46.94,46.94,0,0,1,10.43-.7c4.43,0.07,9.71.66,15.62,0.32a33.46,33.46,0,0,0,9.1-1.78,57.74,57.74,0,0,0,8.89-4.44,63.06,63.06,0,0,1,8.76-4.47A32.11,32.11,0,0,1,98,354.64a35.17,35.17,0,0,1,20,4.25v-0.42a34.82,34.82,0,0,0-4.63-2.19A35.75,35.75,0,0,0,98,354.06Z" transform="translate(-22.44 -56.75)"/><path class="cls-2" d="M111.49,366.26a20.47,20.47,0,0,0-10.23-3.53c-4.19-.17-8.57,1.44-12.78,3.5A96,96,0,0,0,77,372.81c-1.64,1.14-3.48,2.14-4.29,4a2.56,2.56,0,0,0,.41,2.71,5.94,5.94,0,0,0,2.08,1.39,18.4,18.4,0,0,0,7.11,1.7,16.13,16.13,0,0,0,2-.06,2.81,2.81,0,0,0,.69-0.11c0-.06-1,0-2.66-0.08a19.17,19.17,0,0,1-6.93-1.85,5.55,5.55,0,0,1-1.89-1.3,2,2,0,0,1-.3-2.2c0.7-1.57,2.47-2.57,4.13-3.69a101,101,0,0,1,11.48-6.49c4.18-2,8.46-3.62,12.49-3.48a20.34,20.34,0,0,1,10,3.33,57.67,57.67,0,0,1,5.88,4.25l0.89,0.71v-0.25l-0.73-.65A49,49,0,0,0,111.49,366.26Z" transform="translate(-22.44 -56.75)"/><path class="cls-2" d="M89.61,376.67c0.49,0.12.92,0.19,1.38,0.29l5.19,1,8.79,1.69,5.94,1.09,1.62,0.27a2,2,0,0,0,.57,0,2,2,0,0,0-.55-0.17l-1.6-.38-5.9-1.29-8.76-1.83-5.18-1.06c-0.85-.2-2-0.26-2.21-0.89a0.84,0.84,0,0,1,.37-0.91,3.3,3.3,0,0,1,1.15-.62,30.08,30.08,0,0,1,10.72-1.22,30.94,30.94,0,0,1,8.65,1.83,41,41,0,0,1,7.3,3.72,2,2,0,0,0-.43-0.38c-0.3-.22-0.72-0.59-1.33-1a27.52,27.52,0,0,0-5.38-2.79,30.31,30.31,0,0,0-19.71-.79,3.92,3.92,0,0,0-1.38.74,1.92,1.92,0,0,0-.52.67,1.23,1.23,0,0,0,0,.92A1.76,1.76,0,0,0,89.61,376.67Z" transform="translate(-22.44 -56.75)"/><path class="cls-2" d="M45.4,377.46a49.36,49.36,0,0,1,10.11,1.2c2.55,0.58,4.09,1.09,4.13,1a4,4,0,0,0-1-.47,28.89,28.89,0,0,0-3-1A41.61,41.61,0,0,0,35.17,378c-1.07.27-2,.52-2.62,0.75V379c0.69-.17,1.6-0.38,2.72-0.61A49.44,49.44,0,0,1,45.4,377.46Z" transform="translate(-22.44 -56.75)"/><path class="cls-2" d="M41.9,403c4-1,8.85-1.34,14.25-2a106.86,106.86,0,0,0,17.22-4.06,130.1,130.1,0,0,1,17.08-4.31,75.77,75.77,0,0,1,14.32-.9,79.61,79.61,0,0,1,9.65.92c1.13,0.18,2,.33,2.6.44a5.05,5.05,0,0,0,.91.13A5,5,0,0,0,117,393c-0.59-.15-1.46-0.34-2.59-0.56a69.9,69.9,0,0,0-9.68-1.13,73.27,73.27,0,0,0-14.43.77,125.15,125.15,0,0,0-17.17,4.28,110.21,110.21,0,0,1-17.11,4.09c-5.36.7-10.28,1.08-14.28,2.16s-7.09,2.57-8.73,4.24a7.45,7.45,0,0,0-.51.55v0.34a7.71,7.71,0,0,1,.68-0.72C34.87,405.43,37.94,404,41.9,403Z" transform="translate(-22.44 -56.75)"/><path class="cls-2" d="M50.36,382.34a34,34,0,0,0,5.06,2.55,36.68,36.68,0,0,0,18.4,2.32,37.52,37.52,0,0,0,9.9-2.78,65.34,65.34,0,0,1,7.79-2.94,19.1,19.1,0,0,1,5.52-.75c1.32,0,2,.2,2.06.14a1.71,1.71,0,0,0-.52-0.16A10.62,10.62,0,0,0,97,380.5a17.67,17.67,0,0,0-5.64.56c-4.72,1-10.45,4.68-17.67,5.53a37.78,37.78,0,0,1-18.16-2.11,41.05,41.05,0,0,1-5.09-2.34,13.05,13.05,0,0,0-1.81-1A13.09,13.09,0,0,0,50.36,382.34Z" transform="translate(-22.44 -56.75)"/><path class="cls-2" d="M106.78,398.9c1.58,0.21,3,.37,4.25.64s2.32,0.41,3.19.65l2,0.47a3.17,3.17,0,0,0,.71.12,3.13,3.13,0,0,0-.68-0.25l-2-.59c-0.86-.28-1.93-0.48-3.18-0.76s-2.68-.5-4.27-0.73A65.17,65.17,0,0,0,81.94,400,66,66,0,0,0,69,404.85a64,64,0,0,0-9.57,6,2.55,2.55,0,0,0-1.17,2.07,2,2,0,0,0,1.35,1.64,5.69,5.69,0,0,0,3.29.12,5.71,5.71,0,0,1,2,0c0.45,0.1.67,0.23,0.68,0.21A1.77,1.77,0,0,0,65,414.5a5.29,5.29,0,0,0-2.08-.09,5.57,5.57,0,0,1-3.12-.2,1.67,1.67,0,0,1-1.1-1.35,2.15,2.15,0,0,1,1-1.7A67.15,67.15,0,0,1,106.78,398.9Z" transform="translate(-22.44 -56.75)"/><path class="cls-2" d="M75.38,412a1.44,1.44,0,0,1-.09-1.23,3.21,3.21,0,0,1,1-1.11,25.41,25.41,0,0,1,6.78-4,31.48,31.48,0,0,1,9.4-2.11,45.67,45.67,0,0,1,17.34,2.54c2.15,0.71,3.86,1.38,5,1.84a13.34,13.34,0,0,0,1.85.68,1.58,1.58,0,0,0-.44-0.27c-0.3-.15-0.74-0.38-1.32-0.64-1.15-.53-2.85-1.27-5-2a43.6,43.6,0,0,0-17.53-2.75,31.05,31.05,0,0,0-9.58,2.2A24.78,24.78,0,0,0,76,409.29a3.52,3.52,0,0,0-1.1,1.29,1.81,1.81,0,0,0,.15,1.55,2.73,2.73,0,0,0,2,1.31,6.31,6.31,0,0,0,1.48.07,1.53,1.53,0,0,0,.51-0.07c0-.07-0.72,0-1.94-0.24A2.5,2.5,0,0,1,75.38,412Z" transform="translate(-22.44 -56.75)"/><path class="cls-2" d="M35,418a76,76,0,0,0,8.53,4A81,81,0,0,0,91,425.92c5.15-1.1,9.75-2.17,13.69-2.63a37.52,37.52,0,0,1,9.35-.12l1.46,0.2,1.06,0.21a4.91,4.91,0,0,0,.88.14,4.66,4.66,0,0,0-.85-0.27l-1.05-.27-1.46-.26a35.38,35.38,0,0,0-9.43-.08c-8,.73-18.51,4.49-30.67,4.34a83.53,83.53,0,0,1-30.28-5.56,88.56,88.56,0,0,1-8.57-3.83l-2.26-1.2-0.31-.16v0.12l0.25,0.16Z" transform="translate(-22.44 -56.75)"/><path class="cls-2" d="M101.22,417.36a44.43,44.43,0,0,1-7.78-.5,30.49,30.49,0,0,1-6.13-1.64,37.09,37.09,0,0,1-5.22-2.68,1,1,0,0,0,.29.29,10.62,10.62,0,0,0,.94.72,20.92,20.92,0,0,0,3.82,2.08,28.72,28.72,0,0,0,6.21,1.79,41.86,41.86,0,0,0,7.88.56c5.61-.12,10.61-0.83,14.25-1.19l2.55-.31v-0.33l-2.59.19C111.79,416.6,106.77,417.25,101.22,417.36Z" transform="translate(-22.44 -56.75)"/><path class="cls-2" d="M45,425.38c4.1,1.08,8.82,3,14.32,4.28a79.17,79.17,0,0,0,18.19,2.21c13.14,0.32,24.43-4.31,32.93-4a27.53,27.53,0,0,1,7.61,1.06v-0.32a27,27,0,0,0-7.6-1.19c-8.66-.38-19.93,4.17-32.93,3.84a80.54,80.54,0,0,1-18.06-2.14C54,427.82,49.23,426,45.09,424.94a31.16,31.16,0,0,0-10-1.18,19.49,19.49,0,0,0-2.53.35v0.14a24.68,24.68,0,0,1,2.54-.24A32.52,32.52,0,0,1,45,425.38Z" transform="translate(-22.44 -56.75)"/><path class="cls-2" d="M42.45,438.81A40.23,40.23,0,0,1,57,435.56c5.67-.25,11.89.58,18.41,1.4,3.26,0.4,6.47.74,9.58,0.87a65.34,65.34,0,0,0,9-.25c5.67-.53,10.79-1,15-0.36a21.22,21.22,0,0,1,9,3.3V440.2a21.08,21.08,0,0,0-8.92-3.42c-4.31-.73-9.5-0.27-15.15.22a65.75,65.75,0,0,1-8.89.21c-3.08-.14-6.27-0.48-9.53-0.88C69,435.52,62.76,434.7,57,435a40,40,0,0,0-14.75,3.43,39.08,39.08,0,0,0-8.72,5.33c-0.38.3-.7,0.58-1,0.84v0.25c0.34-.27.72-0.57,1.15-0.9A41.4,41.4,0,0,1,42.45,438.81Z" transform="translate(-22.44 -56.75)"/><path class="cls-2" d="M75.14,444.19A61.83,61.83,0,0,0,63,442.75a32.92,32.92,0,0,0-9.87,1.42,22.9,22.9,0,0,0-5.91,2.8h0.49a25.07,25.07,0,0,1,5.55-2.38A33.66,33.66,0,0,1,63,443.33a64,64,0,0,1,12,1.48c3.55,0.72,6.93,1.52,10.11,2.16h3.13L87,446.75C83.36,446,79.37,445.05,75.14,444.19Z" transform="translate(-22.44 -56.75)"/><rect class="cls-3" x="10.11" y="324.58" width="61.85" height="1.21"/><rect class="cls-3" x="10.11" y="356.42" width="61.86" height="1.21"/><rect class="cls-3" x="35.01" y="325.19" width="13.07" height="2.77"/><rect class="cls-3" x="35.01" y="293.71" width="13.07" height="2.77"/><rect class="cls-3" x="35.01" y="356.86" width="13.07" height="2.77"/><rect class="cls-2" x="71.96" y="293.71" width="23.62" height="96.55"/><rect class="cls-2" x="10.11" y="253.96" width="8.34" height="39.75"/><rect class="cls-2" x="22.69" y="258" width="5.82" height="35.71"/><rect class="cls-3" x="18.45" y="258" width="4.24" height="35.71"/><rect class="cls-1" x="28.5" y="262.1" width="4.3" height="31.61"/><rect class="cls-2" x="32.8" y="251.28" width="9.1" height="42.43"/><path class="cls-2" d="M70.77,331.72l-0.86,3.58,0.86,1.29v2.15l-0.86,2,0.86,0.72v5l-0.86.57,0.86,0.72v2.72H116.7v-3.29l-0.86-1.57,0.86-7.15L116,335a8.42,8.42,0,0,1-.72-1.86c0-.43.14-1.43,0.14-1.43H70.77Z" transform="translate(-22.44 -56.75)"/><g class="cls-5"><polygon class="cls-3" points="71.96 293.71 70.86 288.52 71.96 286.39 71.96 284.34 70.86 283.27 71.96 281.62 71.96 274.97 92.97 274.97 92.83 276.4 93.54 278.26 94.26 281.69 93.4 288.85 94.26 290.42 94.26 293.71 71.96 293.71"/></g><path class="cls-6" d="M481.3,447c0,0.14-102.73.26-229.42,0.26S22.44,447.19,22.44,447s102.71-.26,229.44-0.26S481.3,446.9,481.3,447Z" transform="translate(-22.44 -56.75)"/><rect class="cls-4" x="129.47" y="155.75" width="34.03" height="42.97" transform="translate(-23.16 -56.15) rotate(-0.23)"/><path class="cls-6" d="M129.56,198.78l0.64,0,1.83,0,6.91-.08,24.65-.21-0.21.22c-0.06-12.28-.14-27.06-0.22-43l0.26,0.26h-4.56l-4.5,0-8.75,0-16.21,0,0.23-.23c0,12.72,0,23.42,0,31,0,3.76,0,6.74,0,8.81q0,1.51,0,2.35c0,0.25,0,.45,0,0.61a1.54,1.54,0,0,1,0,.22,0.91,0.91,0,0,1,0-.19l0-.58q0-.82,0-2.3c0-2.06-.06-5-0.1-8.76-0.06-7.6-.14-18.35-0.24-31.13v-0.23h0.23l16.21-.09,8.75,0,4.5,0h4.56l0.27,0.26c0,15.9.09,30.68,0.13,43v0.22h-25l-6.86,0-1.79,0Z" transform="translate(-22.44 -56.75)"/><rect class="cls-6" x="144.43" y="197.75" width="4.72" height="1.15" transform="translate(-23.2 -56.19) rotate(-0.22)"/><rect class="cls-7" x="141.55" y="170.78" width="10.32" height="14.91" transform="translate(-23.16 -56.15) rotate(-0.23)"/><rect class="cls-8" x="141.55" y="170.78" width="10.32" height="14.91" transform="translate(-23.16 -56.15) rotate(-0.23)"/><rect class="cls-6" x="144.92" y="155.16" width="4.72" height="0.98" transform="translate(-23.06 -56.16) rotate(-0.23)"/><circle class="cls-7" cx="215.79" cy="72.93" r="22.84"/><path class="cls-4" d="M248.72,130.38a18.81,18.81,0,0,1-3,.17c-1.88,0-4.51.08-7.47,0.09H238v-0.26c0-.47,0-1,0-1.48,0-3.31,0-6.3.08-8.47a23.49,23.49,0,0,1,.18-3.51,23.32,23.32,0,0,1,.18,3.51c0,2.17.08,5.16,0.08,8.47,0,0.51,0,1,0,1.48l-0.26-.26c3,0,5.59,0,7.47.09A18.82,18.82,0,0,1,248.72,130.38Z" transform="translate(-22.44 -56.75)"/><ellipse class="cls-4" cx="215.86" cy="55.76" rx="0.26" ry="1.92"/><ellipse class="cls-4" cx="247.37" cy="115.01" rx="1.89" ry="0.26" transform="translate(-31.32 151.83) rotate(-45)"/><path class="cls-4" d="M254.79,120.32a9.36,9.36,0,0,1-3.23,2A5.61,5.61,0,0,1,254.79,120.32Z" transform="translate(-22.44 -56.75)"/><ellipse class="cls-4" cx="233.3" cy="73.43" rx="2.62" ry="0.26"/><ellipse class="cls-4" cx="197.17" cy="73.08" rx="2.47" ry="0.26"/><ellipse class="cls-4" cx="222.68" cy="138.76" rx="2.52" ry="0.26" transform="translate(-60.22 113.64) rotate(-38.85)"/><path class="cls-4" d="M231,142.86a20.53,20.53,0,0,1-2.62,4.36A9.1,9.1,0,0,1,231,142.86Z" transform="translate(-22.44 -56.75)"/><ellipse class="cls-4" cx="215.86" cy="90.81" rx="0.26" ry="2.62"/><path class="cls-4" d="M249.57,146.7a8.31,8.31,0,0,1-3.92-3.41A32.28,32.28,0,0,1,249.57,146.7Z" transform="translate(-22.44 -56.75)"/><ellipse class="cls-4" cx="253.24" cy="139.37" rx="0.26" ry="2.3" transform="translate(-46.82 163.13) rotate(-45)"/><ellipse class="cls-4" cx="222.98" cy="121.37" rx="0.26" ry="2.01" transform="translate(-42.96 136.47) rotate(-45)"/><ellipse class="cls-4" cx="229.54" cy="114.53" rx="0.26" ry="1.97" transform="translate(-36.01 139.65) rotate(-45.13)"/><rect class="cls-4" x="309.99" y="200.74" width="35.05" height="23.62" transform="translate(-41.05 -24.87) rotate(-5.42)"/><path class="cls-6" d="M346.08,222.65a3.63,3.63,0,0,1-.06-0.44L345.87,221l-0.5-4.74-1.73-17.06,0.23,0.19L309,202.7l0.23-.28h0v0.17l0,0.2,0,0.39,0.07,0.78,0.15,1.56,0.29,3.08,0.57,6,1.06,11.3-0.26-.21,25.09-2.26,7.21-.62,1.93-.15,0.5,0h0.18l-0.63.09-1.88.21-7.14.74-25.22,2.51-0.24,0,0-.24-1.09-11.3-0.57-6L309,205.59,308.84,204l-0.07-.78,0-.39,0-.2v-0.17h0l0.24-.29,34.89-3.26,0.21,0,0,0.21,1.52,17.21L346,221l0.09,1.22A2.55,2.55,0,0,1,346.08,222.65Z" transform="translate(-22.44 -56.75)"/><path class="cls-6" d="M343.84,199.13a10.93,10.93,0,0,1-1.06,1.33L339.73,204c-2.6,3-6.23,7-10.3,11.56l-0.15.16-0.19-.12-0.93-.59c-5.34-3.41-10.17-6.51-13.64-8.78l-4.1-2.71-1.1-.76a1.61,1.61,0,0,1-.36-0.29,1.61,1.61,0,0,1,.42.21l1.15,0.68,4.19,2.57c3.53,2.19,8.38,5.25,13.72,8.66l0.93,0.59-0.33,0c4.07-4.52,7.75-8.56,10.42-11.46l3.17-3.41A10.93,10.93,0,0,1,343.84,199.13Z" transform="translate(-22.44 -56.75)"/><rect class="cls-7" x="274.31" y="26.8" width="44.24" height="65.84"/><rect class="cls-9" x="274.31" y="26.8" width="44.24" height="65.84"/><path class="cls-6" d="M341.5,149.9H296.23V83H341.5V149.9Zm-44.24-1h43.21V84.06H297.26v64.82Z" transform="translate(-22.44 -56.75)"/><rect class="cls-4" x="278.76" y="30.86" width="35.41" height="57.68"/><rect class="cls-7" x="286.48" y="47.21" width="19.88" height="23.3"/><path class="cls-6" d="M269.77,197.92a2,2,0,0,0,.87-0.33,1.66,1.66,0,0,0,.61-0.91,9.7,9.7,0,0,0,.05-1.57c0-2.44,0-5.89.06-10.14l0-3.36q0-.88,0-1.79a5,5,0,0,0,0-.87,1.44,1.44,0,0,0-.37-0.71,1.34,1.34,0,0,0-.71-0.38,7.55,7.55,0,0,0-.92,0h-6.12l-18.41,0a1.4,1.4,0,0,0-1.36,1.28q0,1.2,0,2.38,0,2.39-.07,4.7c0,3.08-.1,6-0.14,8.88l0,1.05a1.48,1.48,0,0,0,.21.87,1.34,1.34,0,0,0,.66.55,2.42,2.42,0,0,0,.92.09h3.9l7,0,10.14,0.08,2.76,0,0.72,0,0.24,0-0.24,0-0.72,0-2.76,0-10.14.08-7,0H245a2.82,2.82,0,0,1-1.08-.12,1.81,1.81,0,0,1-.89-0.74,2,2,0,0,1-.28-1.12q0-.52,0-1.05l0.11-8.88q0-2.31.06-4.7,0-1.2,0-2.42a1.92,1.92,0,0,1,1.87-1.76l18.41,0h6.12a7.42,7.42,0,0,1,1,0,1.78,1.78,0,0,1,.94.51,1.86,1.86,0,0,1,.48.93,5.19,5.19,0,0,1,0,1q0,0.91,0,1.79L271.73,185l-0.23,10.14a9,9,0,0,1-.11,1.6,1.74,1.74,0,0,1-.7,1,1.55,1.55,0,0,1-.69.25A0.62,0.62,0,0,1,269.77,197.92Z" transform="translate(-22.44 -56.75)"/><polygon class="cls-6" points="235.94 129.3 239.35 131.37 235.87 133.41 232.38 135.46 232.45 131.34 232.53 127.23 235.94 129.3"/><path class="cls-4" d="M187.54,245.43L162,231.67h0a22.32,22.32,0,0,0,7.1-8l9.34-17.91a11.14,11.14,0,0,1,8.86-5.81h0L211,212.68h0a14.44,14.44,0,0,0-6.55,6.2l-10.57,19.59a19.53,19.53,0,0,1-6.33,7h0Z" transform="translate(-22.44 -56.75)"/><path class="cls-6" d="M187.54,245.43a1.88,1.88,0,0,1,.28-0.23c0.19-.14.47-0.35,0.83-0.64a19.89,19.89,0,0,0,4.55-5.19c0.54-.91,1.06-2,1.66-3l4-7.48,4.85-9.06a23.38,23.38,0,0,1,1.43-2.45,14.67,14.67,0,0,1,5.69-4.83l0,0h0c0,0.84,0,.23,0,0.41l-0.09,0-0.17-.09-0.34-.18-0.68-.37L198.11,206,192,202.75l-3.1-1.67-1.57-.85-0.1-.05,0,0,0.12,0h0l-0.22,0-0.43.05c-0.29.06-.58,0.09-0.86,0.17A10.87,10.87,0,0,0,180,204a13.35,13.35,0,0,0-1.82,2.89l-1.58,3-6,11.55a36.4,36.4,0,0,1-3.07,5.27,22.55,22.55,0,0,1-4,4.15q-0.54.44-1.11,0.83l-0.14.1-0.07,0c0-.72,0-0.19,0-0.35h0l0,0,0.3,0.16L163.1,232l2.3,1.25,4.33,2.36,13.05,7.14,3.54,2,0.91,0.52a1.89,1.89,0,0,1,.3.19l-0.33-.15-0.94-.48-3.58-1.88-13.13-7-4.35-2.33-2.31-1.24-0.59-.32-0.3-.16,0,0h0c0-.16,0,0.35,0-0.37l0.07,0,0.14-.1q0.55-.39,1.08-0.82a22.22,22.22,0,0,0,3.91-4.09,36.18,36.18,0,0,0,3-5.22l6-11.56,1.58-3a13.86,13.86,0,0,1,1.88-3,11.38,11.38,0,0,1,6.09-3.72c0.3-.08.6-0.12,0.9-0.18l0.46-.05,0.23,0h0l0.17,0,0,0,0.1,0.05,1.57,0.85,3.1,1.68,6.06,3.28,11.46,6.2,0.68,0.37,0.34,0.18,0.17,0.09,0.08,0c0,0.19,0-.42,0,0.44h0l0,0a14.2,14.2,0,0,0-5.53,4.66,23.13,23.13,0,0,0-1.41,2.4l-4.91,9-4.06,7.44c-0.61,1.09-1.14,2.12-1.7,3a19.59,19.59,0,0,1-1.74,2.37,18.69,18.69,0,0,1-3,2.77c-0.37.28-.66,0.48-0.86,0.6A1.78,1.78,0,0,1,187.54,245.43Z" transform="translate(-22.44 -56.75)"/><ellipse class="cls-6" cx="190.15" cy="214.38" rx="0.18" ry="10.55" transform="translate(-111.55 221.91) rotate(-61.39)"/><ellipse class="cls-6" cx="188.44" cy="217.77" rx="0.18" ry="10.9" transform="translate(-115.42 222.17) rotate(-61.39)"/><ellipse class="cls-6" cx="186.74" cy="220.88" rx="0.18" ry="10.9" transform="translate(-119.02 222.3) rotate(-61.39)"/><ellipse class="cls-6" cx="185.05" cy="223.98" rx="0.18" ry="10.9" transform="translate(-122.63 222.44) rotate(-61.39)"/><ellipse class="cls-6" cx="183.36" cy="227.08" rx="0.18" ry="10.9" transform="translate(-126.24 222.57) rotate(-61.39)"/><path class="cls-6" d="M182,230.39a7.55,7.55,0,0,1-1.52-.68c-0.91-.46-2.17-1.12-3.54-1.87s-2.6-1.44-3.49-2a7.56,7.56,0,0,1-1.39-.91,7.51,7.51,0,0,1,1.52.68c0.91,0.46,2.17,1.12,3.54,1.87s2.6,1.44,3.49,2A7.53,7.53,0,0,1,182,230.39Z" transform="translate(-22.44 -56.75)"/><path class="cls-6" d="M188.06,238.42s0.1-.25.2-0.7a3,3,0,0,0-.21-1.89,2.82,2.82,0,1,0-2.17,4,3,3,0,0,0,1.71-.84c0.33-.33.45-0.56,0.48-0.55a1.59,1.59,0,0,1-.38.64,3,3,0,0,1-1.77,1,3.1,3.1,0,0,1-2.83-1,3.14,3.14,0,0,1,2.83-5.19,3.1,3.1,0,0,1,2.36,1.84,3,3,0,0,1,.12,2A1.58,1.58,0,0,1,188.06,238.42Z" transform="translate(-22.44 -56.75)"/><rect class="cls-6" x="181.99" y="207.79" width="8.41" height="1.21" transform="translate(100.08 -120.46) rotate(28.61)"/><polygon class="cls-7" points="140.94 72.93 134.4 65.98 134.4 89 148.29 73.42 140.94 72.93"/><polygon class="cls-8" points="140.94 72.93 134.4 65.98 134.4 89 148.29 73.42 140.94 72.93"/><polyline class="cls-7" points="134.55 88.84 142.68 73.04 140.94 72.93 139.87 71.8 134.55 88.84"/><path class="cls-6" d="M163.38,129.68a11.82,11.82,0,0,1-.72,2.45c-0.52,1.49-1.29,3.52-2.21,5.73s-1.8,4.2-2.45,5.63a12.65,12.65,0,0,1-1.15,2.27,12.15,12.15,0,0,1,.81-2.42c0.57-1.47,1.39-3.47,2.31-5.68l2.35-5.66A13,13,0,0,1,163.38,129.68Z" transform="translate(-22.44 -56.75)"/><ellipse class="cls-6" cx="162.88" cy="129.09" rx="2.5" ry="0.26" transform="translate(-15.57 209.65) rotate(-79.75)"/><ellipse class="cls-6" cx="165.22" cy="119.38" rx="2.5" ry="0.26" transform="translate(-19.24 186.32) rotate(-73.21)"/><ellipse class="cls-6" cx="168.63" cy="109.99" rx="2.5" ry="0.26" transform="translate(-21.26 165.02) rotate(-66.84)"/><ellipse class="cls-6" cx="173.06" cy="101.03" rx="2.5" ry="0.26" transform="translate(-22.46 145.28) rotate(-60.54)"/><ellipse class="cls-6" cx="178.45" cy="92.61" rx="2.5" ry="0.26" transform="translate(-23.42 126.57) rotate(-54.25)"/><ellipse class="cls-6" cx="184.73" cy="84.84" rx="2.5" ry="0.26" transform="translate(-24.59 108.08) rotate(-47.84)"/><ellipse class="cls-6" cx="191.85" cy="77.83" rx="2.5" ry="0.26" transform="translate(-26.15 89.06) rotate(-41.25)"/><path class="cls-6" d="M201.8,70.29a7,7,0,0,1-1.93,1.61,6.26,6.26,0,0,1-2.2,1.21,6.2,6.2,0,0,1,1.9-1.64A5.63,5.63,0,0,1,201.8,70.29Z" transform="translate(-22.44 -56.75)"/><ellipse class="cls-6" cx="208.31" cy="66.57" rx="2.5" ry="0.26" transform="translate(-29.7 46.61) rotate(-27.41)"/><ellipse class="cls-6" cx="217.44" cy="62.51" rx="2.5" ry="0.26" transform="translate(-30.53 23.78) rotate(-20.61)"/><ellipse class="cls-6" cx="226.98" cy="59.54" rx="2.5" ry="0.26" transform="translate(-30.1 -0.36) rotate(-13.93)"/><ellipse class="cls-6" cx="236.81" cy="57.7" rx="2.5" ry="0.26" transform="translate(-27.85 -26.25) rotate(-7.29)"/><ellipse class="cls-6" cx="246.78" cy="57.01" rx="2.5" ry="0.26" transform="translate(-23.03 -54.12) rotate(-0.61)"/><ellipse class="cls-6" cx="256.75" cy="57.5" rx="0.26" ry="2.5" transform="translate(149.49 249.81) rotate(-83.82)"/><ellipse class="cls-6" cx="266.59" cy="59.17" rx="0.26" ry="2.5" transform="translate(125.82 248.53) rotate(-76.83)"/><ellipse class="cls-6" cx="276.16" cy="62.06" rx="0.26" ry="2.5" transform="translate(98.95 242.29) rotate(-69.52)"/><ellipse class="cls-6" cx="285.23" cy="66.22" rx="0.26" ry="2.5" transform="translate(66.56 226.8) rotate(-60.99)"/><ellipse class="cls-6" cx="293.5" cy="71.8" rx="0.26" ry="2.5" transform="translate(30.07 197.31) rotate(-50.85)"/><path class="cls-6" d="M302.28,80.62a8.5,8.5,0,0,1-1.68-1.85,7.8,7.8,0,0,1-1.47-2,5.21,5.21,0,0,1,1.87,1.7A4.94,4.94,0,0,1,302.28,80.62Z" transform="translate(-22.44 -56.75)"/><ellipse class="cls-6" cx="273.99" cy="186.73" rx="0.26" ry="2.5" transform="translate(49.32 392.74) rotate(-86.69)"/><ellipse class="cls-6" cx="283.98" cy="186.6" rx="2.5" ry="0.26" transform="translate(-37.62 -31.3) rotate(-5)"/><path class="cls-6" d="M296.23,184.24a12.13,12.13,0,0,1-4.83,1.29A12.13,12.13,0,0,1,296.23,184.24Z" transform="translate(-22.44 -56.75)"/><path class="cls-6" d="M305.35,180.18a9.56,9.56,0,0,1-4.45,2.28A16.71,16.71,0,0,1,305.35,180.18Z" transform="translate(-22.44 -56.75)"/><path class="cls-6" d="M313.19,174a9.25,9.25,0,0,1-3.72,3.34A17.71,17.71,0,0,1,313.19,174Z" transform="translate(-22.44 -56.75)"/><path class="cls-6" d="M319.13,166a9.16,9.16,0,0,1-2.69,4.21A18.11,18.11,0,0,1,319.13,166Z" transform="translate(-22.44 -56.75)"/><path class="cls-6" d="M322.51,156.65a8.78,8.78,0,0,1-1.32,4.81,7.63,7.63,0,0,1,.51-2.45A7.73,7.73,0,0,1,322.51,156.65Z" transform="translate(-22.44 -56.75)"/><path class="cls-6" d="M322.86,148.72a4.34,4.34,0,0,1,.14,3A4.34,4.34,0,0,1,322.86,148.72Z" transform="translate(-22.44 -56.75)"/><path class="cls-6" d="M200.14,201.34a17.11,17.11,0,0,1-2.93,4.05A9.44,9.44,0,0,1,200.14,201.34Z" transform="translate(-22.44 -56.75)"/><path class="cls-6" d="M207.32,194.42a16.54,16.54,0,0,1-3.79,3.25A9.59,9.59,0,0,1,207.32,194.42Z" transform="translate(-22.44 -56.75)"/><path class="cls-6" d="M215.87,189.25a12.15,12.15,0,0,1-4.42,2.35A12.15,12.15,0,0,1,215.87,189.25Z" transform="translate(-22.44 -56.75)"/><path class="cls-6" d="M225.33,186a16.39,16.39,0,0,1-4.82,1.35A9.67,9.67,0,0,1,225.33,186Z" transform="translate(-22.44 -56.75)"/><path class="cls-6" d="M235.25,185a16.73,16.73,0,0,1-5,.23A9.52,9.52,0,0,1,235.25,185Z" transform="translate(-22.44 -56.75)"/><ellipse class="cls-6" cx="240.54" cy="185.42" rx="0.26" ry="0.31" transform="translate(0.49 340.54) rotate(-81.86)"/><ellipse class="cls-6" cx="214.96" cy="269.32" rx="0.26" ry="2.5" transform="translate(-150.3 247.41) rotate(-57.21)"/><ellipse class="cls-6" cx="206.79" cy="263.56" rx="0.26" ry="2.5" transform="translate(-150.65 204.64) rotate(-51.51)"/><path class="cls-6" d="M198.72,254.18a7.32,7.32,0,0,1,1.48,2,7.79,7.79,0,0,1,1.19,2.2,5.21,5.21,0,0,1-1.63-1.92A5.42,5.42,0,0,1,198.72,254.18Z" transform="translate(-22.44 -56.75)"/><path class="cls-6" d="M194.9,245a12.13,12.13,0,0,1,1.68,4.71A12.13,12.13,0,0,1,194.9,245Z" transform="translate(-22.44 -56.75)"/><polygon class="cls-10" points="246.51 301.54 244.45 390.53 240.53 390.53 240.78 301.76 246.51 301.54"/><polygon class="cls-10" points="260.69 300.55 279.77 390.53 284.15 390.53 268.26 300.55 260.69 300.55"/><polygon class="cls-10" points="224.91 301.54 203.79 390.53 199.42 390.53 218.59 301.17 224.91 301.54"/><path class="cls-10" d="M302.27,273s21.07-1.2,19,23.18-3.31,49.07-11.14,57.5-86.7,8.73-93.32,1.81,12.64-6.62,16.26-6.62,25.89,2.11,33.12-16.86S271.57,271.75,302.27,273Z" transform="translate(-22.44 -56.75)"/><path class="cls-10" d="M303.62,273s16.11,3.3,14.6,20.16-5.72,46.36-13.55,53.89-38.5,9.17-55.09,8.13c-19.27-1.2-31.43-4.87-31.43-4.87s-3.52,2.26-2.45,3.72,10.46,7.31,56,6.34,42.37-7.69,44.26-15,5.86-46.47,5.31-55.07S316.39,274.47,303.62,273Z" transform="translate(-22.44 -56.75)"/><path class="cls-11" d="M303.62,273s16.11,3.3,14.6,20.16-5.72,46.36-13.55,53.89-38.5,9.17-55.09,8.13c-19.27-1.2-31.43-4.87-31.43-4.87s-3.52,2.26-2.45,3.72,10.46,7.31,56,6.34,42.37-7.69,44.26-15,5.86-46.47,5.31-55.07S316.39,274.47,303.62,273Z" transform="translate(-22.44 -56.75)"/><ellipse class="cls-10" cx="269.71" cy="249.03" rx="1.75" ry="2.23"/><path class="cls-10" d="M291.6,295.91a13.12,13.12,0,0,0-.59,3.25,7.68,7.68,0,0,0,.77,3.42,7.15,7.15,0,0,0,1.15,1.71,7.81,7.81,0,0,1,.8.87,1.73,1.73,0,0,1,.3,1.34,15.62,15.62,0,0,1-.89,2.19,6.75,6.75,0,0,0-.26,2,7.58,7.58,0,0,0,.88,3.39,12.74,12.74,0,0,0,2,2.6,2,2,0,0,1-.78-0.48,7.2,7.2,0,0,1-1.63-1.91,7.62,7.62,0,0,1-1.06-3.58,7,7,0,0,1,.26-2.24,18.9,18.9,0,0,0,.86-2.1c0.16-.67-0.38-1.14-0.94-1.7a7.42,7.42,0,0,1-1.22-1.88,7.71,7.71,0,0,1-.69-3.67,7.27,7.27,0,0,1,.56-2.44A2.07,2.07,0,0,1,291.6,295.91Z" transform="translate(-22.44 -56.75)"/><path class="cls-10" d="M286.82,302.89c0.1,0,0,.53.25,1.27a4.47,4.47,0,0,0,1.75,2.36,6.94,6.94,0,0,0,2.86,1,4.47,4.47,0,0,1,1.31.23,2.37,2.37,0,0,1-1.34.2,5.89,5.89,0,0,1-3.17-.95,4.27,4.27,0,0,1-1.83-2.77A1.69,1.69,0,0,1,286.82,302.89Z" transform="translate(-22.44 -56.75)"/><g class="cls-11"><ellipse cx="269.71" cy="249.03" rx="1.75" ry="2.23"/><path d="M291.6,295.91a13.12,13.12,0,0,0-.59,3.25,7.68,7.68,0,0,0,.77,3.42,7.15,7.15,0,0,0,1.15,1.71,7.81,7.81,0,0,1,.8.87,1.73,1.73,0,0,1,.3,1.34,15.62,15.62,0,0,1-.89,2.19,6.75,6.75,0,0,0-.26,2,7.58,7.58,0,0,0,.88,3.39,12.74,12.74,0,0,0,2,2.6,2,2,0,0,1-.78-0.48,7.2,7.2,0,0,1-1.63-1.91,7.62,7.62,0,0,1-1.06-3.58,7,7,0,0,1,.26-2.24,18.9,18.9,0,0,0,.86-2.1c0.16-.67-0.38-1.14-0.94-1.7a7.42,7.42,0,0,1-1.22-1.88,7.71,7.71,0,0,1-.69-3.67,7.27,7.27,0,0,1,.56-2.44A2.07,2.07,0,0,1,291.6,295.91Z" transform="translate(-22.44 -56.75)"/><path d="M286.82,302.89c0.1,0,0,.53.25,1.27a4.47,4.47,0,0,0,1.75,2.36,6.94,6.94,0,0,0,2.86,1,4.47,4.47,0,0,1,1.31.23,2.37,2.37,0,0,1-1.34.2,5.89,5.89,0,0,1-3.17-.95,4.27,4.27,0,0,1-1.83-2.77A1.69,1.69,0,0,1,286.82,302.89Z" transform="translate(-22.44 -56.75)"/></g><path class="cls-6" d="M266.23,212.11c-0.27-.1-0.62-0.21-1.07-0.33a14.1,14.1,0,0,0-4.79-.42,10.58,10.58,0,0,0-6.51,2.84,9.34,9.34,0,0,0-2.34,3.57,7.85,7.85,0,0,0-.44,2.24c0,0.78.06,1.54,0,2.28a2.55,2.55,0,0,1-.78,1.87,6.31,6.31,0,0,1-1.85,1,6.66,6.66,0,0,0-1.92,1.09,5.45,5.45,0,0,0-1.31,1.68,5.28,5.28,0,0,0-.37,3.85,13.18,13.18,0,0,0,1.43,3c0.24,0.38.44,0.75,0.63,1.12a4.44,4.44,0,0,1,0,.94,6.37,6.37,0,0,1-1.9,3.59,15.62,15.62,0,0,0-2.6,3.2,3.58,3.58,0,0,0,.17,3.89c1,1.16,2.77,1.16,4.31,1.12a130.66,130.66,0,0,1,16,.9l4.32-37.18Q266.77,212.25,266.23,212.11Zm-13.46,6.58c-0.24,1.47,0,3.06-.73,4.37s-2.32,2.1-3.51,3.14a7.33,7.33,0,0,0-2.32,6.71c0.12,0.62.31,1.23,0.48,1.84l-0.06-.1a13.23,13.23,0,0,1-1.33-3,4.86,4.86,0,0,1,.38-3.52,5,5,0,0,1,1.2-1.52,6.22,6.22,0,0,1,1.79-1,6.71,6.71,0,0,0,2-1.11,3.08,3.08,0,0,0,.94-2.22c0-.8-0.07-1.56,0-2.28a7.39,7.39,0,0,1,.4-2.1,9,9,0,0,1,2.2-3.39,10.35,10.35,0,0,1,6.21-2.82,13.6,13.6,0,0,1,1.53-.08,11.51,11.51,0,0,0-3.46.64A8.62,8.62,0,0,0,252.76,218.69Z" transform="translate(-22.44 -56.75)"/><path class="cls-12" d="M260.1,256.09c0.32-1.71-.24-8.94-0.24-8.94s-6.4-.81-6.68-7.34,0.37-21.59.37-21.59l11.79-5.66,10.29,11.73L275.82,256Z" transform="translate(-22.44 -56.75)"/><ellipse class="cls-6" cx="256.02" cy="229.24" rx="0.84" ry="0.81" transform="translate(-0.08 424.47) rotate(-89)"/><path class="cls-6" d="M253.87,228.3a11.68,11.68,0,0,1,1.59-.44,11.8,11.8,0,0,1,1.62.29,0.57,0.57,0,0,0-.34-0.46,2.12,2.12,0,0,0-2.56.12A0.58,0.58,0,0,0,253.87,228.3Z" transform="translate(-22.44 -56.75)"/><ellipse class="cls-6" cx="265.56" cy="229.24" rx="0.84" ry="0.81" transform="translate(9.29 434.01) rotate(-89)"/><path class="cls-6" d="M263.59,228.47a11.71,11.71,0,0,1,1.59-.44,11.76,11.76,0,0,1,1.62.29,0.57,0.57,0,0,0-.34-0.46,2.12,2.12,0,0,0-2.56.12A0.58,0.58,0,0,0,263.59,228.47Z" transform="translate(-22.44 -56.75)"/><path class="cls-6" d="M260.29,236a5.38,5.38,0,0,0-1.43-.22,0.47,0.47,0,0,1-.48-0.22,1.31,1.31,0,0,1,.14-0.72l0.63-1.85a33.7,33.7,0,0,0,1.41-4.84,33.48,33.48,0,0,0-1.77,4.71l-0.61,1.86a1.49,1.49,0,0,0-.1.95,0.56,0.56,0,0,0,.37.34,1.43,1.43,0,0,0,.38,0A5.4,5.4,0,0,0,260.29,236Z" transform="translate(-22.44 -56.75)"/><path class="cls-13" d="M259.86,247.16a15.59,15.59,0,0,0,8.48-2.78s-2,4.76-8.37,4.38Z" transform="translate(-22.44 -56.75)"/><path class="cls-6" d="M291.67,233a3.48,3.48,0,0,1-1.24,0c-0.74-1.15-2.07-2-3.06-3.07a5.07,5.07,0,0,1,.24-2.85,14,14,0,0,0,.46-1.55,3.16,3.16,0,0,0-.09-1.77,4.72,4.72,0,0,0-2.56-2.35c-0.88-1.23-2.49-1.8-3.62-2.84a9.26,9.26,0,0,1-.5-1.76,11.88,11.88,0,0,0-.77-2.87,5.47,5.47,0,0,0-1.66-2,5.8,5.8,0,0,0-2.82-1.16,7.67,7.67,0,0,0-2.3-.77A8,8,0,0,0,267,212.2a13.73,13.73,0,0,0-10.62,1.64,8,8,0,0,0-3.36,3.39,10.56,10.56,0,0,0-.63,4.25q0,1.55,0,3.1a1.34,1.34,0,0,0,.14.76,1.36,1.36,0,0,0,1.14.42l4.79,0.18a1.73,1.73,0,0,0,1-.15,1.69,1.69,0,0,0,.75-1.52c0-.46,0-1.38,0-1.64,0.21,1,.41,1.22.57,1.86a2.45,2.45,0,0,0,1,1.66,2.82,2.82,0,0,0,1.38.23q1,0,2.07,0a1.68,1.68,0,0,0,1-.25,1.6,1.6,0,0,0,.36-1.54,11,11,0,0,1-.32-2.14c0.62,1.22.91,2.73,1.68,2.94a5.2,5.2,0,0,0,2.31-.17c0.77-.24,1.32-0.44,1.88-0.61a4.89,4.89,0,0,1-.24.94c-0.58,1.57-1.88,3.08-1.44,4.69s2.07,2.17,2.91,3.44a5.49,5.49,0,0,1,.18,4.79,44.35,44.35,0,0,0-1.77,4.63c-0.37,1.62-.1,3.54,1.22,4.54a6,6,0,0,0,3.66.82l11.62,0.11a6.42,6.42,0,0,0,2.23-.24,2.18,2.18,0,0,0,1.48-1.56,2.76,2.76,0,0,0-1.07-2.31,7.17,7.17,0,0,1-1.77-2c-0.61-1.31,0-2.84.66-4.11s1.46-2.64,1.21-4.06a3.28,3.28,0,0,0-.34-1,3.45,3.45,0,0,0,1.13-.13,2.83,2.83,0,0,0,.92-0.45,0.81,0.81,0,0,0,.25-0.25A5.12,5.12,0,0,1,291.67,233Zm-14.85-21.77a5.76,5.76,0,0,1,1.82,1,5.17,5.17,0,0,1,1.49,1.92,11.85,11.85,0,0,1,.69,2.78c0,0.2.08,0.41,0.13,0.62-0.57-1-.84-2.12-1.33-3.16A7.89,7.89,0,0,0,276.81,211.23Zm9,11a3.64,3.64,0,0,1,1.66,1.72,4.61,4.61,0,0,1-.34,3,5.42,5.42,0,0,0-.32,2.35,4.17,4.17,0,0,1-.5-0.89C285.56,226.5,286.51,224.16,285.82,222.27Z" transform="translate(-22.44 -56.75)"/><path class="cls-13" d="M260.61,238.31a1.71,1.71,0,0,1,1-1.25,1.36,1.36,0,0,1,1.13,0,1,1,0,0,1,.52,1,1.12,1.12,0,0,1-.91.84,3.1,3.1,0,0,1-1.3-.09,0.91,0.91,0,0,1-.34-0.12,0.32,0.32,0,0,1-.14-0.31" transform="translate(-22.44 -56.75)"/><path class="cls-6" d="M262.78,236a0.73,0.73,0,0,1,.15.67,2.33,2.33,0,0,1-2.25,2.12,0.72,0.72,0,0,1-.66-0.18A3.09,3.09,0,0,0,262.78,236Z" transform="translate(-22.44 -56.75)"/><path class="cls-12" d="M247.56,259.23S228.19,276.07,227.69,274c-2.72-11.15-2-25.38-1.52-30.83,0.3-.47.65-1,1.06-1.55A7.31,7.31,0,0,1,229,240a11.17,11.17,0,0,1,2.63-1.48,0.92,0.92,0,0,0,.26-1.73c-0.78-.29-3.25.35-5.55,2.27s-1.36-2.64-1.05-4.31,1-6.87.59-7.36c-0.64-.72-1.55-0.14-1.82,1.53s-1.44,6.64-2.32,6.46,0.83-8.65.83-8.65,0.66-1.76-.35-2c-1.81-.44-3,8.68-3,9.55-0.06.6-1,.44-0.92-0.21s1.89-8.42.05-8.89c-1.41-.36-1,7.5-2.27,8.92s0.3-6-1.06-6.29c-0.51-.11-0.9-0.12-1.19,4.26a96.62,96.62,0,0,0,.38,10.57c-1.21,12-3.56,48.85,13.08,47.58,19.63-1.5,24.15-17,24.15-17Z" transform="translate(-22.44 -56.75)"/><path class="cls-7" d="M301.82,286l-3.36-16.85c-2.48-13.79-21.8-14.74-21.8-14.74l-15.17-.25s-10.1-.32-18.19,6.31-13.51,11.73-13.51,11.73l12.7,14.68,7.51-5s-2.7,4.88-2.25,9c0.43,4,4.63,7.06,4.63,7.06l-3.15,33.87,49.54-2L292.37,286h9.46Z" transform="translate(-22.44 -56.75)"/><path class="cls-4" d="M299.46,272.84a8.58,8.58,0,0,1-.59,1.24,13.77,13.77,0,0,1-7.74,6.28,14.11,14.11,0,0,1-8.19.09,11.54,11.54,0,0,1-4.27-2.25,6.79,6.79,0,0,1-2.5-4.57,5.23,5.23,0,0,1,2.57-4.87,3.73,3.73,0,0,1,3-.2,5,5,0,0,1,2.42,1.91,5.58,5.58,0,0,1,1,3,7.19,7.19,0,0,1-.67,3.14,12.45,12.45,0,0,1-4.29,4.88,17.45,17.45,0,0,1-13.1,2.82,15.52,15.52,0,0,1-6.37-2.74,11.33,11.33,0,0,1-4.07-5.36,9,9,0,0,1,.21-6.48,6.41,6.41,0,0,1,4.79-3.88,4.32,4.32,0,0,1,4.81,3,3.93,3.93,0,0,1-.5,2.87,5.52,5.52,0,0,1-2,2,8,8,0,0,1-5.18.65,26.36,26.36,0,0,1-4.64-1.27,15.86,15.86,0,0,1-6.87-4.49,9.52,9.52,0,0,1-2.23-5.75,7.31,7.31,0,0,1,.86-3.82,4.88,4.88,0,0,1,.82-1.1s-0.3.37-.73,1.15a7.4,7.4,0,0,0-.75,3.76,9.36,9.36,0,0,0,2.25,5.57,15.63,15.63,0,0,0,6.77,4.33,26.22,26.22,0,0,0,4.57,1.22,7.62,7.62,0,0,0,4.9-.63,5.08,5.08,0,0,0,1.84-1.82A3.48,3.48,0,0,0,266,269a3.86,3.86,0,0,0-4.3-2.67,5.93,5.93,0,0,0-4.4,3.6,8.55,8.55,0,0,0-.18,6.12,10.83,10.83,0,0,0,3.9,5.11,15,15,0,0,0,6.16,2.65,17,17,0,0,0,12.71-2.72,12,12,0,0,0,4.13-4.67,6.7,6.7,0,0,0,.64-2.92,5.1,5.1,0,0,0-.92-2.72,4.55,4.55,0,0,0-2.18-1.74,3.27,3.27,0,0,0-2.63.16,4.8,4.8,0,0,0-2.35,4.44,6.39,6.39,0,0,0,2.34,4.29,11.2,11.2,0,0,0,4.11,2.2,13.88,13.88,0,0,0,8,0,13.69,13.69,0,0,0,5.27-3.05,14.55,14.55,0,0,0,2.46-3c0.23-.38.4-0.68,0.5-0.88A1.82,1.82,0,0,1,299.46,272.84Z" transform="translate(-22.44 -56.75)"/><path class="cls-4" d="M297.39,324.3l-0.27.12c-0.18.06-.45,0.18-0.81,0.28a14.06,14.06,0,0,1-3.26.56,15.38,15.38,0,0,1-5.2-.6,14.69,14.69,0,0,1-6-3.44,15.4,15.4,0,0,1-4.66-11.94,10.39,10.39,0,0,1,1.38-4.82,5.63,5.63,0,0,1,1.88-1.88,4.83,4.83,0,0,1,2.65-.66,3.59,3.59,0,0,1,2.55,1.17,4.07,4.07,0,0,1,1,2.69,5,5,0,0,1-.83,2.77,7.4,7.4,0,0,1-2.07,2.05,14.11,14.11,0,0,1-5.47,2.09,16.62,16.62,0,0,1-11.13-2.24,14.62,14.62,0,0,1-4.07-3.67,10.24,10.24,0,0,1-2.1-4.83,6.2,6.2,0,0,1,1.36-4.8,4.59,4.59,0,0,1,2-1.4,4.12,4.12,0,0,1,2.39-.06,4.06,4.06,0,0,1,2,1.17,3.22,3.22,0,0,1,.84,2.06,4.75,4.75,0,0,1-1.81,3.62,8.87,8.87,0,0,1-3.24,1.78,12.8,12.8,0,0,1-3.23.64,12.3,12.3,0,0,1-5.17-.8,11.45,11.45,0,0,1-2.87-1.64,8.11,8.11,0,0,1-.66-0.56,1.21,1.21,0,0,1-.21-0.21s0.32,0.24.92,0.68a12,12,0,0,0,8,2.23,12.59,12.59,0,0,0,3.14-.66,8.54,8.54,0,0,0,3.1-1.74,4.39,4.39,0,0,0,1.65-3.33,3.15,3.15,0,0,0-2.54-2.84,3.69,3.69,0,0,0-2.13.06,4.15,4.15,0,0,0-1.82,1.28,5.74,5.74,0,0,0-1.24,4.45,9.77,9.77,0,0,0,2,4.59,14.13,14.13,0,0,0,3.94,3.54,16.15,16.15,0,0,0,10.78,2.16,13.64,13.64,0,0,0,5.26-2,5.41,5.41,0,0,0,2.68-4.39,3.57,3.57,0,0,0-.82-2.36,3.09,3.09,0,0,0-2.2-1,4.35,4.35,0,0,0-2.38.59,5.17,5.17,0,0,0-1.72,1.71,10,10,0,0,0-1.33,4.59A15,15,0,0,0,282.11,321a14.5,14.5,0,0,0,5.83,3.43,15.49,15.49,0,0,0,8.34.21C297,324.41,297.38,324.28,297.39,324.3Z" transform="translate(-22.44 -56.75)"/><path class="cls-6" d="M280.62,268.1a4.55,4.55,0,0,1,.27,1.08l0.58,3,1.89,9.75c0.72,3.82,1.35,7.28,1.74,9.79,0.2,1.26.34,2.28,0.42,3a4.53,4.53,0,0,1,.07,1.11,4.56,4.56,0,0,1-.27-1.08l-0.58-3L282.85,282c-0.72-3.81-1.35-7.27-1.74-9.79-0.2-1.26-.34-2.28-0.42-3A4.57,4.57,0,0,1,280.62,268.1Z" transform="translate(-22.44 -56.75)"/><ellipse class="cls-6" cx="292.98" cy="286.17" rx="9.15" ry="0.26" transform="translate(-23.44 -55.72) rotate(-0.2)"/><ellipse class="cls-6" cx="236.38" cy="279.41" rx="0.26" ry="9.64" transform="translate(-145.91 155.96) rotate(-39.27)"/><path class="cls-6" d="M275.31,254.47a9.53,9.53,0,0,1-2.29.26c-1.42.08-3.38,0.13-5.55,0.1s-4.13-.15-5.54-0.27a9.48,9.48,0,0,1-2.28-.33,10.81,10.81,0,0,1,2.3,0l5.53,0.12,5.53,0.05A10.84,10.84,0,0,1,275.31,254.47Z" transform="translate(-22.44 -56.75)"/><path class="cls-6" d="M247.86,286.25a9.4,9.4,0,0,1,.88-2l1.08-2.15a4,4,0,0,0,.75-2.61c-0.37-2-.72-3.9-0.93-5.24a9.44,9.44,0,0,1-.24-2.21,9.41,9.41,0,0,1,.61,2.13c0.3,1.34.71,3.16,1.09,5.24a2.65,2.65,0,0,1-.19,1.61,12.57,12.57,0,0,1-.66,1.29l-1.17,2.09A9.46,9.46,0,0,1,247.86,286.25Z" transform="translate(-22.44 -56.75)"/><path class="cls-7" d="M207.69,441.87V431.56l18.48-.12,0.15,15.42-1.15.08c-5.1.33-25.94,1-29.35-.09C192,445.67,207.69,441.87,207.69,441.87Z" transform="translate(-22.44 -56.75)"/><ellipse class="cls-6" cx="188.38" cy="389.16" rx="15.43" ry="0.31"/><path class="cls-6" d="M207.36,444a1.93,1.93,0,0,0-1.37-1.87A2.9,2.9,0,0,0,207.36,444Z" transform="translate(-22.44 -56.75)"/><path class="cls-6" d="M206.18,444.66a2.28,2.28,0,0,0-1.26-2.24A3.68,3.68,0,0,0,206.18,444.66Z" transform="translate(-22.44 -56.75)"/><path class="cls-6" d="M220.69,445.84a1.81,1.81,0,0,0,.75-0.67,12.21,12.21,0,0,1,1.62-1.62,4.24,4.24,0,0,1,2-.87,4.5,4.5,0,0,0,1-.08,1.13,1.13,0,0,0-1-.37,3.68,3.68,0,0,0-2.37.82,6.72,6.72,0,0,0-1.6,1.86A1.66,1.66,0,0,0,220.69,445.84Z" transform="translate(-22.44 -56.75)"/><path class="cls-6" d="M207.31,442a1.34,1.34,0,0,0,1.78.65A2,2,0,0,0,207.31,442Z" transform="translate(-22.44 -56.75)"/><path class="cls-6" d="M207.6,441a2.1,2.1,0,0,0,2.21,0A2.1,2.1,0,0,0,207.6,441Z" transform="translate(-22.44 -56.75)"/><path class="cls-7" d="M246.69,441.87V431.56l18.48-.12,0.15,15.42-1.15.08c-5.1.33-25.94,1-29.35-.09C231,445.67,246.69,441.87,246.69,441.87Z" transform="translate(-22.44 -56.75)"/><ellipse class="cls-6" cx="227.38" cy="389.16" rx="15.43" ry="0.31"/><path class="cls-6" d="M246.36,444a1.93,1.93,0,0,0-1.37-1.87A2.9,2.9,0,0,0,246.36,444Z" transform="translate(-22.44 -56.75)"/><path class="cls-6" d="M245.19,444.66a2.28,2.28,0,0,0-1.26-2.24A3.67,3.67,0,0,0,245.19,444.66Z" transform="translate(-22.44 -56.75)"/><path class="cls-6" d="M259.69,445.84a1.81,1.81,0,0,0,.75-0.67,12.22,12.22,0,0,1,1.62-1.62,4.24,4.24,0,0,1,2-.87,4.5,4.5,0,0,0,1-.08,1.13,1.13,0,0,0-1-.37,3.67,3.67,0,0,0-2.37.82,6.73,6.73,0,0,0-1.6,1.86A1.67,1.67,0,0,0,259.69,445.84Z" transform="translate(-22.44 -56.75)"/><path class="cls-6" d="M246.31,442a1.34,1.34,0,0,0,1.78.65A2,2,0,0,0,246.31,442Z" transform="translate(-22.44 -56.75)"/><path class="cls-6" d="M246.6,441a2.1,2.1,0,0,0,2.21,0A2.1,2.1,0,0,0,246.6,441Z" transform="translate(-22.44 -56.75)"/><path class="cls-12" d="M303.89,299.48c-1-8.09-2.06-13.31-2.06-13.31l-17.62.26s1.58,8.9,1.09,11.28c-0.42,2.07-34.41,3.45-43.27,3.59-0.53-.4-1.29.27-2-0.32a7.1,7.1,0,0,1-1.51-1.86,11.06,11.06,0,0,1-1.21-2.75,0.91,0.91,0,0,0-1.68-.38c-0.35.76,0,3.28,1.73,5.72s-2.73,1.17-4.34.74-6.68-1.53-7.2-1.12c-0.77.59-.29,1.54,1.34,1.94s6.41,1.92,6.15,2.79-8.45-1.46-8.45-1.46-1.67-.79-2,0.2c-0.6,1.78,8.28,3.59,9.13,3.74,0.59,0.1.34,1.05-.29,0.91s-8.12-2.5-8.76-.7c-0.48,1.39,7.3,1.55,8.59,2.93s-5.89-.74-6.3.6c-0.15.5,2.83,0.73,7.13,1.34a109.88,109.88,0,0,0,13.27.47c10,0.55,45.15,1.27,52.66.74C307.06,314.2,304.22,302.26,303.89,299.48Z" transform="translate(-22.44 -56.75)"/><path class="cls-6" d="M222.77,328a262.84,262.84,0,0,1,45.62-.57l-19.28,27.68-17.4.07-3.64,85.08H205l2.2-94.89A17.93,17.93,0,0,1,222.77,328h0Z" transform="translate(-22.44 -56.75)"/><path class="cls-11" d="M222.77,328a262.84,262.84,0,0,1,45.62-.57l-19.28,27.68-17.4.07-3.64,85.08H205l2.2-94.89A17.93,17.93,0,0,1,222.77,328h0Z" transform="translate(-22.44 -56.75)"/><path class="cls-6" d="M265.13,357.29s34.47,2.34,33.61-28.61c0,0-47.93-5.83-57.12,4.06C233.93,341,241,440.25,241,440.25L266.6,439" transform="translate(-22.44 -56.75)"/><path class="cls-10" d="M272.3,327a3.4,3.4,0,0,1-.68,0l-1.95.08c-1.69.08-4.13,0.22-7.15,0.43l-4.93.39c-1.77.17-3.67,0.32-5.61,0.67a37,37,0,0,0-6,1.64c-2,.77-4,1.92-5,4a20.91,20.91,0,0,0-1.71,6.4,59.42,59.42,0,0,0-.43,6.23c-0.1,4-.29,7.6-0.41,10.63l-0.29,7.16-0.07,1.95a3.35,3.35,0,0,1-.06.68,3.36,3.36,0,0,1,0-.68c0-.45,0-1.1,0-2,0-1.69,0-4.14.12-7.17s0.23-6.63.3-10.62a58.11,58.11,0,0,1,.4-6.29,21.15,21.15,0,0,1,1.75-6.57,7.1,7.1,0,0,1,2.27-2.67,13.07,13.07,0,0,1,3-1.56,36.75,36.75,0,0,1,6.1-1.63c2-.34,3.89-0.47,5.67-0.62s3.43-.24,4.94-0.33c3-.16,5.47-0.25,7.17-0.26,0.85,0,1.51,0,2,0A3.26,3.26,0,0,1,272.3,327Z" transform="translate(-22.44 -56.75)"/><path class="cls-10" d="M266.8,432.54a3.89,3.89,0,0,1-1,.15c-0.66.06-1.61,0.14-2.79,0.22-2.36.17-5.61,0.36-9.21,0.54s-6.86.32-9.22,0.39c-1.18,0-2.14.06-2.8,0.06a3.93,3.93,0,0,1-1,0,4,4,0,0,1,1-.15c0.66-.06,1.61-0.14,2.79-0.22,2.36-.17,5.61-0.36,9.21-0.54s6.86-.32,9.22-0.39c1.18,0,2.14-.06,2.8-0.06A4,4,0,0,1,266.8,432.54Z" transform="translate(-22.44 -56.75)"/><ellipse class="cls-10" cx="194.43" cy="376.95" rx="11.96" ry="0.26"/><path class="cls-10" d="M239.42,338.19h-0.29l-0.85-.07c-0.75-.06-1.85-0.15-3.26-0.22s-3.16-.12-5.17,0a28.38,28.38,0,0,0-3.2.32,10.17,10.17,0,0,0-3.37,1.08,2.91,2.91,0,0,0-1.25,1.3,12.55,12.55,0,0,0-.65,1.9,32.31,32.31,0,0,0-.84,4.21c-0.28,3-.55,6.16-0.78,9.5-0.48,6.7-.83,14.09-1.11,21.84-0.52,15.52-1.12,29.56-1.53,39.73l-0.53,12-0.17,3.27-0.06.85a1.2,1.2,0,0,1,0,.29,1.23,1.23,0,0,1,0-.29c0-.22,0-0.5,0-0.85,0-.79,0-1.88.07-3.28,0.09-2.88.21-7,.37-12L218.12,378c0.28-7.76.64-15.15,1.15-21.86q0.37-5,.83-9.52a32.22,32.22,0,0,1,.88-4.26,12.92,12.92,0,0,1,.69-2,3.28,3.28,0,0,1,1.42-1.45,10.43,10.43,0,0,1,3.51-1.09,28,28,0,0,1,3.24-.29,50.68,50.68,0,0,1,5.19.11c1.42,0.1,2.52.22,3.26,0.32l0.84,0.12Z" transform="translate(-22.44 -56.75)"/><path class="cls-10" d="M293,328.09a1.25,1.25,0,0,1,0,.35c0,0.23,0,.58-0.12,1a11.36,11.36,0,0,1-1.4,3.74,11.55,11.55,0,0,1-8.36,5.53,38.58,38.58,0,0,1-4.43.13H262.9c-1,0-2,0-2.94,0a7.59,7.59,0,0,0-2.84.67,7.68,7.68,0,0,0-4,4.35,8.39,8.39,0,0,0-.47,3.1q0,1.64,0,3.31c0,4.45,0,9.06,0,13.79,0,18.88-.06,36-0.08,48.38,0,6.17-.06,11.17-0.08,14.66,0,1.71,0,3,0,4,0,0.43,0,.78,0,1a1.81,1.81,0,0,1,0,.35,1.73,1.73,0,0,1,0-.35c0-.26,0-0.6,0-1,0-.94,0-2.28,0-4,0-3.49,0-8.5-.08-14.66,0-12.41,0-29.5-.08-48.38,0-4.72,0-9.33,0-13.79q0-1.67,0-3.31a8.9,8.9,0,0,1,.5-3.27,8.16,8.16,0,0,1,4.29-4.62,8.06,8.06,0,0,1,3-.71c1,0,2,0,3,0l5.64,0,10.12,0.05a38.89,38.89,0,0,0,4.39-.09,11.37,11.37,0,0,0,8.23-5.31,11.78,11.78,0,0,0,1.47-3.66c0.09-.44.13-0.79,0.17-1A3,3,0,0,1,293,328.09Z" transform="translate(-22.44 -56.75)"/><ellipse class="cls-10" cx="265.25" cy="354.39" rx="3.96" ry="0.26" transform="translate(-126.06 542.35) rotate(-86.75)"/><path class="cls-6" d="M122.35,293.29s-1.11-8.83-.23-8.83,1.4,8.83,1.4,8.83h-1.46" transform="translate(-22.44 -56.75)"/><path class="cls-7" d="M125.23,293.29s-1.11-8.83-.23-8.83,1.4,8.83,1.4,8.83h-1.46" transform="translate(-22.44 -56.75)"/><path class="cls-9" d="M125.23,293.29s-1.11-8.83-.23-8.83,1.4,8.83,1.4,8.83h-1.46" transform="translate(-22.44 -56.75)"/><path class="cls-6" d="M129.64,293.29s-1.11-8.83-.23-8.83,1.4,8.83,1.4,8.83h-1.46" transform="translate(-22.44 -56.75)"/><path class="cls-10" d="M127.06,293.75s0-8.9.87-8.79,0.29,8.93.29,8.93l-1.45-.18" transform="translate(-22.44 -56.75)"/><path class="cls-7" d="M124.36,293.29s-1.11-8.83-.23-8.83,1.4,8.83,1.4,8.83h-1.46" transform="translate(-22.44 -56.75)"/><path class="cls-8" d="M124.36,293.29s-1.11-8.83-.23-8.83,1.4,8.83,1.4,8.83h-1.46" transform="translate(-22.44 -56.75)"/><polygon class="cls-7" points="99.73 250.43 98.26 236.53 110.04 236.53 110.04 250.43 99.73 250.43"/><polygon class="cls-6" points="350.2 250.48 89.91 250.48 89.91 257.43 103.83 257.43 96.62 390.08 100.59 390.07 107.8 257.43 336 257.43 342.15 390.06 346.54 390.29 339.97 257.43 350.2 257.43 350.2 250.48"/><polygon class="cls-6" points="175.13 209.44 189.56 251.62 254.91 251.62 254.43 249.44 228 248.63 215.83 209.41 175.13 209.44"/><path class="cls-4" d="M226.53,286c0.43,1.73-.31,3.42-1.65,3.78s-2.78-.75-3.22-2.48,0.31-3.42,1.65-3.78S226.1,284.27,226.53,286Z" transform="translate(-22.44 -56.75)"/><path class="cls-7" d="M353,294.34a6,6,0,0,0-4.06-1.17c0-.78,0-1.26,0-1.26H326.78s-0.7,14.61,10.49,15.13c5,0.23,7.87-2,9.51-4.84a11.14,11.14,0,0,0,2.51.31,5.8,5.8,0,0,0,3.48-1,4.39,4.39,0,0,0,1.66-3.74A4.28,4.28,0,0,0,353,294.34Zm-1.52,5.43c-0.94.71-2.64,0.6-3.74,0.4a19.46,19.46,0,0,0,1.08-4.8,4.21,4.21,0,0,1,2.77.64,2.17,2.17,0,0,1,.68,1.77A2.32,2.32,0,0,1,351.48,299.77Z" transform="translate(-22.44 -56.75)"/><path class="cls-6" d="M347.08,290.37a3,3,0,0,1-.53-0.62,5.9,5.9,0,0,1-.91-2.16,6.3,6.3,0,0,1,.33-3.69,12.17,12.17,0,0,1,3.1-3.8,9.15,9.15,0,0,0,2.8-5,8.58,8.58,0,0,0-1.19-6.34,8.82,8.82,0,0,0-2.46-2.56,13.25,13.25,0,0,0-3.42-1.54,10.27,10.27,0,0,1-3.61-1.82,5.3,5.3,0,0,1-1.28-1.69,3.36,3.36,0,0,1-.26-2.17l0.09-.3,0.33,0.33a3.41,3.41,0,0,0-2,3,6.84,6.84,0,0,0,.82,3.66c0.54,1.15,1.22,2.23,1.72,3.4a7.22,7.22,0,0,1,.7,3.66,5.22,5.22,0,0,1-1.64,3.15,10.17,10.17,0,0,1-2.77,1.85,57.26,57.26,0,0,0-5.37,2.31,7.51,7.51,0,0,0-3.12,3.46,8.31,8.31,0,0,0-.75,3.49,9.51,9.51,0,0,0,.57,3,0.62,0.62,0,0,1-.1-0.18,4.91,4.91,0,0,1-.24-0.55,7.35,7.35,0,0,1-.44-2.28,8.35,8.35,0,0,1,.69-3.61,7.77,7.77,0,0,1,3.2-3.66,54.15,54.15,0,0,1,5.38-2.38,9.79,9.79,0,0,0,2.64-1.78,4.76,4.76,0,0,0,1.49-2.88,6.77,6.77,0,0,0-.68-3.41c-0.48-1.12-1.16-2.2-1.73-3.38a7.32,7.32,0,0,1-.88-3.94,4.74,4.74,0,0,1,.68-2,3.3,3.3,0,0,1,1.68-1.38l0.47-.17-0.14.5-0.07.25a3.61,3.61,0,0,0,1.38,3.35,9.87,9.87,0,0,0,3.43,1.72,13.64,13.64,0,0,1,3.53,1.61,9.28,9.28,0,0,1,2.58,2.71,9,9,0,0,1,1.21,6.68,9.5,9.5,0,0,1-3,5.14,12.08,12.08,0,0,0-3.09,3.65,6.17,6.17,0,0,0-.4,3.53A6.92,6.92,0,0,0,347.08,290.37Z" transform="translate(-22.44 -56.75)"/><polygon class="cls-6" points="120.36 214.13 120.23 204.56 153.74 207.41 154.69 215.94 120.36 214.13"/><ellipse class="cls-10" cx="146.3" cy="266.36" rx="0.26" ry="4.72" transform="translate(-32.7 -50.85) rotate(-2.23)"/><ellipse class="cls-10" cx="147.85" cy="266.45" rx="0.26" ry="4.7" transform="translate(-28.19 -53.48) rotate(-1.24)"/><path class="cls-4" d="M150.8,266c5.84,0.64,12.71,1,18.64,1.54" transform="translate(-22.44 -56.75)"/><path class="cls-10" d="M169.44,267.5a14.89,14.89,0,0,1-2.74,0c-1.69-.09-4-0.23-6.6-0.42s-4.91-.41-6.59-0.62a13.32,13.32,0,0,1-2.71-.46,15.57,15.57,0,0,1,2.74.09l6.59,0.46c2.57,0.19,4.91.39,6.59,0.57A13.79,13.79,0,0,1,169.44,267.5Z" transform="translate(-22.44 -56.75)"/><ellipse class="cls-10" cx="171.68" cy="268.13" rx="0.26" ry="4.28" transform="translate(-35.33 -48.05) rotate(-2.8)"/><ellipse class="cls-10" cx="173.53" cy="268.24" rx="0.26" ry="4.31" transform="translate(-47.9 -38.45) rotate(-5.63)"/><path class="cls-4" d="M155.77,268.1c3.69,0.25,6.5.44,9.45,0.5" transform="translate(-22.44 -56.75)"/><ellipse class="cls-10" cx="160.49" cy="268.35" rx="0.26" ry="4.73" transform="translate(-138.47 357.57) rotate(-86.95)"/><polygon class="cls-7" points="126.84 250.6 125.93 241.09 159.55 241.15 161.38 250.48 126.84 250.6"/><polygon class="cls-8" points="126.84 250.6 125.93 241.09 159.55 241.15 161.38 250.48 126.84 250.6"/><rect class="cls-6" x="165.69" y="291.9" width="1.72" height="21.03" transform="translate(-158.59 411.71) rotate(-89.9)"/><polygon class="cls-6" points="122.11 241.89 121.29 232.37 154.91 232.78 156.48 241.22 122.11 241.89"/><polygon class="cls-4" points="121.4 233.66 121.93 240.09 154.63 239.76 153.59 233.88 121.4 233.66"/><path class="cls-6" d="M174.31,293.26a5.13,5.13,0,0,1-1.18.08l-3.22,0c-2.72,0-6.47,0-10.61-.1s-7.89-.16-10.61-0.26l-3.21-.14a5.2,5.2,0,0,1-1.18-.12,5.09,5.09,0,0,1,1.18-.08l3.22,0c2.72,0,6.47,0,10.61.1s7.89,0.16,10.61.26l3.21,0.14A5.17,5.17,0,0,1,174.31,293.26Z" transform="translate(-22.44 -56.75)"/><path class="cls-6" d="M174.31,294.07a5.26,5.26,0,0,1-1.19.12l-3.24.13c-2.73.09-6.51,0.17-10.68,0.23s-8,.08-10.69.08l-3.24,0a5.2,5.2,0,0,1-1.19-.09,5.32,5.32,0,0,1,1.19-.12l3.24-.13c2.73-.09,6.51-0.17,10.69-0.23s7.95-.08,10.68-0.08l3.24,0A5.34,5.34,0,0,1,174.31,294.07Z" transform="translate(-22.44 -56.75)"/><polygon class="cls-10" points="122.61 232.8 121.97 223.25 155.58 224.32 156.98 232.79 122.61 232.8"/><polygon class="cls-4" points="123.94 231.6 156.64 231.13 155.73 225.19 123.32 224.59 123.94 231.6"/><polygon class="cls-7" points="123.52 223.44 123.21 213.89 156.76 216.08 157.88 224.59 123.52 223.44"/><rect class="cls-6" x="162.64" y="265.85" width="1.72" height="21.03" transform="matrix(0.06, -1, 1, 0.06, -145.32, 364.85)"/><path class="cls-6" d="M178.5,284.39a6.09,6.09,0,0,1-1.28.11l-3.5.1c-3,.06-7,0.1-11.54.12s-8.59,0-11.54,0l-3.5-.07a6.13,6.13,0,0,1-1.29-.1,6.22,6.22,0,0,1,1.28-.11l3.5-.1c3-.06,7-0.1,11.55-0.12s8.59,0,11.55,0l3.5,0.07A6.08,6.08,0,0,1,178.5,284.39Z" transform="translate(-22.44 -56.75)"/><path class="cls-6" d="M178.89,286.24a6.15,6.15,0,0,1-1.29.08l-3.52,0c-3,0-7.08,0-11.62-.08s-8.65-.15-11.62-0.24l-3.52-.13a6.15,6.15,0,0,1-1.29-.12,6.25,6.25,0,0,1,1.29-.08l3.52,0c3,0,7.09,0,11.63.08s8.65,0.15,11.62.24l3.52,0.13A6.25,6.25,0,0,1,178.89,286.24Z" transform="translate(-22.44 -56.75)"/></svg>