<svg id="Layer_1" data-name="Layer 1" xmlns="http://www.w3.org/2000/svg" xmlns:xlink="http://www.w3.org/1999/xlink" viewBox="0 0 381.04 334.62"><defs><style>.cls-1{fill:#ffd6a4;}.cls-2{fill:#efbb84;}.cls-3{isolation:isolate;}.cls-4{fill:#fff;}.cls-5{fill:#cceaf2;}.cls-6{fill:#13a4b2;}.cls-7{fill:#ccf2ff;}.cls-8{fill:#16c5d5;}.cls-9{fill:#ff8e66;}.cls-10{fill:#dd4919;}.cls-11{fill:#0d3a56;}.cls-12{fill:#ffc19c;}.cls-13{fill:#44494c;}.cls-14{fill:#23648c;}.cls-15{fill:#2493bc;}.cls-16{fill:#ffcf06;}.cls-17{fill:#b72b06;}.cls-18{fill:#1b5e92;}.cls-19{fill:#e3a327;}.cls-20{fill:#f78f1e;}.cls-21{fill:url(#linear-gradient);}</style><linearGradient id="linear-gradient" x1="-68.25" y1="188.79" x2="-65.52" y2="188.79" gradientTransform="translate(420.52 1.33) rotate(29.97)" gradientUnits="userSpaceOnUse"><stop offset="0" stop-color="#e3a327"/><stop offset="1" stop-color="#ffcf06"/></linearGradient></defs><title>features-1</title><polygon class="cls-1" points="244.87 315.08 295.85 286.85 257.15 264.35 222.42 292.26 244.87 315.08"/><path class="cls-1" d="M211.38,290a12.62,12.62,0,0,1-17.16-4.93h0a12.62,12.62,0,0,1,4.93-17.15l91.29-50.76a12.62,12.62,0,0,1,17.16,4.93h0c3.37,6.1-15.05,23-21.15,26.36Z" transform="translate(0 -16.38)"/><path class="cls-2" d="M307.61,222.08a11.46,11.46,0,0,0-.62-1L264.16,244.3a13.6,13.6,0,0,0-5.31,18.48l0.1,0.16,27.5-14.5C292.55,245.07,311,228.18,307.61,222.08Z" transform="translate(0 -16.38)"/><path class="cls-1" d="M237.1,293.55a13.55,13.55,0,0,1-18.41-5.29h0A13.54,13.54,0,0,1,224,269.85L320.77,216a13.55,13.55,0,0,1,18.41,5.29h0c3.62,6.54-15,24-21.52,27.62Z" transform="translate(0 -16.38)"/><path class="cls-2" d="M339.18,221.3c-0.09-.15-0.19-0.29-0.28-0.44L290.13,247a13.54,13.54,0,0,0-5.29,18.41c0.09,0.15.19,0.29,0.28,0.45l32.56-16.9C324.21,245.29,342.81,227.84,339.18,221.3Z" transform="translate(0 -16.38)"/><path class="cls-1" d="M265,295.66a13.55,13.55,0,0,1-18.41-5.29h0A13.54,13.54,0,0,1,251.86,272l96.79-53.8a13.54,13.54,0,0,1,18.41,5.29h0a13.54,13.54,0,0,1-5.29,18.41Z" transform="translate(0 -16.38)"/><path class="cls-2" d="M367.06,223.49c-0.09-.15-0.19-0.29-0.27-0.44l-61.52,34.28A13.54,13.54,0,0,0,300,275.74c0.09,0.15.19,0.29,0.27,0.44l61.52-34.28A13.55,13.55,0,0,0,367.06,223.49Z" transform="translate(0 -16.38)"/><path class="cls-1" d="M277.25,306.95a13.55,13.55,0,0,1-18.41-5.29h0a13.54,13.54,0,0,1,5.29-18.41l96.79-53.8a13.55,13.55,0,0,1,18.41,5.29h0A13.55,13.55,0,0,1,374,253.14Z" transform="translate(0 -16.38)"/><path class="cls-2" d="M298.54,295.16l75.5-42a13.55,13.55,0,0,0,6.66-14.78l-75.45,42.26A13.55,13.55,0,0,0,298.54,295.16Z" transform="translate(0 -16.38)"/><path class="cls-1" d="M276.06,329.77a13.55,13.55,0,0,1-18.41-5.29h0a13.54,13.54,0,0,1,5.29-18.41l68.92-38.58a13.54,13.54,0,0,1,18.41,5.29h0A13.55,13.55,0,0,1,345,291.19Z" transform="translate(0 -16.38)"/><g class="cls-3"><path class="cls-2" d="M285.26,285.35a1.69,1.69,0,0,1-.85-0.23c-11.28-6.51-29.56-6.51-40.76,0a1.69,1.69,0,1,1-1.7-2.93c12.13-7.05,31.94-7,44.16,0A1.69,1.69,0,0,1,285.26,285.35Z" transform="translate(0 -16.38)"/><g class="cls-3"><path class="cls-4" d="M240,351l13.06-7.13c6.5-2.49,10.39-8.79,10.18-18.34-0.47-19.21-17.48-44.3-38-56-10.34-5.89-19.6-7.29-26.19-4.76L41,351H240Z" transform="translate(0 -16.38)"/></g><path class="cls-5" d="M240,351l13.06-7.13c6.5-2.49,10.39-8.79,10.18-18.34a47,47,0,0,0-3.32-15.39L185.05,351h55Z" transform="translate(0 -16.38)"/></g><path class="cls-2" d="M252.91,252.53a0.92,0.92,0,0,0,0,1.74l32.83,19.08a3.31,3.31,0,0,0,3,0,0.92,0.92,0,0,0,0-1.74l-32.84-19.08A3.29,3.29,0,0,0,252.91,252.53Z" transform="translate(0 -16.38)"/><path class="cls-1" d="M152.42,242a13.55,13.55,0,0,0,18.41-5.29h0a13.54,13.54,0,0,0-5.29-18.41l-35.23-20.19a13.54,13.54,0,0,0-18.41,5.29h0a13.55,13.55,0,0,0,5.29,18.41Z" transform="translate(0 -16.38)"/><path class="cls-1" d="M74.75,242a13.55,13.55,0,0,1-18.41-5.29h0a13.54,13.54,0,0,1,5.29-18.41l36.53-18.7a13.55,13.55,0,0,1,18.41,5.29h0a13.55,13.55,0,0,1-5.29,18.41Z" transform="translate(0 -16.38)"/><g class="cls-3"><path class="cls-6" d="M235.65,42.71l8,8.38a40.63,40.63,0,0,0-21.89-11.65c-30.39-6.06-68.36,16.2-84.49,49.61-11.36,23.45-9,46.3,4,59.91l-8-8.38c-13-13.61-15.33-36.45-4-59.91,16.13-33.41,54.1-55.67,84.49-49.61A40.61,40.61,0,0,1,235.65,42.71Z" transform="translate(0 -16.38)"/><path class="cls-7" d="M240,46.71c2.66,2.79,6.78,4.71,8,8.38,4.75,14.47,6.55,18.14.93,32-16.49,40.59-16.47,42.31-51.61,60.53-23.46,12.17-28.6,11.81-51.73,5.35-3.71-1-5.32-5.59-8-8.38-13-13.61-15.33-36.45-4-59.91C149.73,51.25,187.71,29,218.09,35.05A40.61,40.61,0,0,1,240,46.71Z" transform="translate(0 -16.38)"/><path class="cls-4" d="M165.5,74.51C178.25,61,193.79,52.3,209.16,48.89c-16.27-4.38-36.71,2.11-51.72,18s-20.28,36.71-15,52.69C145,104.06,152.75,88,165.5,74.51Z" transform="translate(0 -16.38)"/><path class="cls-6" d="M247,31.85l8,8.38c15.85,16.63,18.73,44.55,4.84,73.24-18.25,37.81-59.31,63.92-94.81,61.71a63.09,63.09,0,0,1-8.45-1.09,56.76,56.76,0,0,1-7.92-2.17,48,48,0,0,1-18.88-12.09l-8-8.38a48,48,0,0,0,18.89,12.09,56.77,56.77,0,0,0,7.92,2.17,63.09,63.09,0,0,0,8.45,1.09c35.51,2.21,76.56-23.9,94.81-61.71C265.78,76.41,262.9,48.49,247,31.85Z" transform="translate(0 -16.38)"/><path class="cls-8" d="M220.26,17.6C183.07,10.2,136.75,37.39,117,78.22c-18.3,37.79-7.5,74.24,23.72,85.32a56.77,56.77,0,0,0,7.92,2.17,63.09,63.09,0,0,0,8.45,1.09c35.51,2.21,76.56-23.9,94.81-61.71C271.65,64.27,257.46,25,220.26,17.6Zm19.39,85.05c-16.15,33.39-54.09,55.66-84.5,49.59S113.1,114,129.28,80.67,183.38,25,213.77,31.06,255.78,69.26,239.66,102.65Z" transform="translate(0 -16.38)"/></g><g class="cls-3"><path class="cls-9" d="M153.7,173.29l-33.91,76.47c0.32-.73.07-1.72-0.85-2.89-2.35-3-8.16-6-13-6.78-2.94-.46-4.83,0-5.34,1.17l33.91-76.47c0.5-1.13,2.4-1.63,5.34-1.17,4.83,0.75,10.64,3.78,13,6.78C153.77,171.57,154,172.57,153.7,173.29Z" transform="translate(0 -16.38)"/><path class="cls-10" d="M152.85,170.4a15.43,15.43,0,0,0-4-3.35l-32.71,73.77c0.32-.73.07-1.72-0.85-2.89-1.95-2.48-6.27-5-10.44-6.2l-4.23,9.54c0.5-1.13,2.4-1.63,5.34-1.17,4.83,0.75,10.64,3.78,13,6.78,0.92,1.17,1.17,2.16.85,2.89l33.91-76.47C154,172.57,153.77,171.57,152.85,170.4Z" transform="translate(0 -16.38)"/><path class="cls-11" d="M114.45,250.94c-4.83-.75-10.64-3.78-13-6.78s-0.34-4.82,4.49-4.07,10.64,3.78,13,6.78S119.28,251.69,114.45,250.94Z" transform="translate(0 -16.38)"/></g><g class="cls-3"><path class="cls-8" d="M137.88,217l-37.45,84.88c0.43-1,.1-2.31-1.13-3.88-3.15-4-11-8.09-17.42-9.09-3.94-.61-6.49.05-7.16,1.58l37.45-84.89c0.68-1.52,3.22-2.19,7.16-1.57,6.47,1,14.27,5.07,17.42,9.09C138,214.69,138.32,216,137.88,217Z" transform="translate(0 -16.38)"/><path class="cls-6" d="M136.75,213.12a18.91,18.91,0,0,0-4.25-3.76L98.15,287.21c0.43-1,.1-2.31-1.13-3.88-2.81-3.59-9.34-7.21-15.32-8.66l-7,15.82c0.68-1.52,3.22-2.19,7.16-1.58,6.47,1,14.27,5.07,17.42,9.09,1.23,1.57,1.57,2.9,1.13,3.88L137.88,217C138.32,216,138,214.69,136.75,213.12Z" transform="translate(0 -16.38)"/><path class="cls-11" d="M93.27,303.46c-6.48-1-14.28-5.08-17.42-9.09s-0.45-6.46,6-5.45S96.15,294,99.3,298,99.75,304.47,93.27,303.46Z" transform="translate(0 -16.38)"/></g><path class="cls-1" d="M97.67,334.26A13.54,13.54,0,0,1,79.26,329h0a13.54,13.54,0,0,1,5.29-18.41l49.3-20.89A13.54,13.54,0,0,1,152.26,295h0A13.55,13.55,0,0,1,147,313.36Z" transform="translate(0 -16.38)"/><path class="cls-1" d="M100.47,319.09a13.55,13.55,0,0,1-18.41-5.29h0a13.54,13.54,0,0,1,5.29-18.41L140,266a13.54,13.54,0,0,1,18.41,5.29h0a13.55,13.55,0,0,1-5.29,18.41Z" transform="translate(0 -16.38)"/><path class="cls-1" d="M106.66,295.45a13.54,13.54,0,0,1-18.41-5.29h0a13.54,13.54,0,0,1,5.29-18.41l52.69-29.37a13.54,13.54,0,0,1,18.41,5.29h0a13.55,13.55,0,0,1-5.29,18.41Z" transform="translate(0 -16.38)"/><path class="cls-1" d="M112.85,271.81a13.54,13.54,0,0,1-18.41-5.29h0a13.54,13.54,0,0,1,5.29-18.41l52.69-29.37A13.54,13.54,0,0,1,170.83,224h0a13.55,13.55,0,0,1-5.29,18.41Z" transform="translate(0 -16.38)"/><path class="cls-1" d="M106.52,218.39s-6.38,13.69,18.5,9a19.67,19.67,0,0,0,11.2-6.64l-3.59,24.51-39.9,79.5L38.48,260.4l18-37.07Z" transform="translate(0 -16.38)"/><g class="cls-3"><polygon class="cls-12" points="54.66 259.45 42.04 252.11 42.23 319.19 54.85 326.53 54.66 259.45"/></g><g class="cls-3"><path class="cls-4" d="M66.21,351l24.31-13.21c6.5-2.49,10.39-8.79,10.18-18.34-0.47-19.21-17.48-44.3-38-56-10.34-5.89-19.6-7.29-26.19-4.76L0,278.49V351H66.21Z" transform="translate(0 -16.38)"/></g><path class="cls-5" d="M66.21,351l24.31-13.21c6.5-2.49,10.39-8.79,10.18-18.34a47,47,0,0,0-3.32-15.39L11,351H66.21Z" transform="translate(0 -16.38)"/><path d="M273.11,247.79s7.09,7.11,7,9.35c-0.1,2.84-6.46,4.7-11.48,7.55-5.81,3.3-8.08,1.28-9,.69-2.8-1.87-1.86-3.21-1.86-3.21,0.56-1.53,8-3.14,10.21-5.43C269.76,254.93,270,250.2,273.11,247.79Z" transform="translate(0 -16.38)"/><path class="cls-13" d="M272.54,247.54s7.57,6.86,7.49,9.1c-0.1,2.85-7,4.87-12,7.8s-6.43,1.57-7.11,1.21C250.11,260,270.7,255.38,272.54,247.54Z" transform="translate(0 -16.38)"/><path d="M286.63,257s7.09,7.11,7,9.35c-0.1,2.84-6.46,4.7-11.48,7.55-5.81,3.3-8.08,1.28-9,.69-2.8-1.87-1.86-3.21-1.86-3.21,0.56-1.53,8-3.14,10.22-5.43C283.27,264.18,283.49,259.45,286.63,257Z" transform="translate(0 -16.38)"/><path class="cls-13" d="M286,256.79s7.57,6.86,7.49,9.1c-0.1,2.85-6.95,4.87-12,7.79s-6.43,1.57-7.11,1.21C263.62,269.2,284.21,264.62,286,256.79Z" transform="translate(0 -16.38)"/><g class="cls-3"><path class="cls-14" d="M281,190.42a221.82,221.82,0,0,1,.54,65.17s-1.89,4-8.7,2.94a213.5,213.5,0,0,0,.09-66.83Z" transform="translate(0 -16.38)"/><path class="cls-15" d="M272.9,191.7a213.5,213.5,0,0,1-.09,66.83c-6.37-1-7.53-5.2-7.55-5.19a205.37,205.37,0,0,0-.5-60.35Z" transform="translate(0 -16.38)"/></g><g class="cls-3"><path class="cls-14" d="M296.32,199.14a221.74,221.74,0,0,1,.55,65.17s-1.89,4-8.7,2.94a213.52,213.52,0,0,0,.1-66.83Z" transform="translate(0 -16.38)"/><path class="cls-15" d="M288.26,200.42a213.52,213.52,0,0,1-.1,66.83c-6.36-1-7.53-5.2-7.55-5.19a205.35,205.35,0,0,0-.5-60.35Z" transform="translate(0 -16.38)"/></g><path class="cls-16" d="M255.26,189.7s1.92,10,4.36,10.32c3.67,0.46,2.48-7.67,2.37-10.37C261.66,181.33,255.26,189.7,255.26,189.7Z" transform="translate(0 -16.38)"/><path class="cls-17" d="M256.4,192.79l2.46,3.06s3.37-.29,4.31-2l0.57-37H259Z" transform="translate(0 -16.38)"/><path class="cls-17" d="M287.75,206.36s6.06,0,7.82-4.54V167.35l-7.82,4.54v34.47Z" transform="translate(0 -16.38)"/><path class="cls-16" d="M291.75,212.74s-0.9,8.78.72,10.63,7.51-2.31,7.16-10.63S291.75,212.74,291.75,212.74Z" transform="translate(0 -16.38)"/><path class="cls-10" d="M300.55,163.2c-1.84-10.57-14.85-17.62-18.81-20.06-4.22-2.6-8.73-3-10.81-4.07-5.22-2.78-8.24.26-9.65,2.25-2.18,3.07-5.51,28-5.51,28-0.52,2.57-.52,23.49-0.52,23.49-0.15,2.94,3.6,3.06,3.6,3.06s0.55-19.52,1.55-23.74l1.6-13.74v33.13s1.45,5.1,8.75,9.49c7.6,4.58,17,5.37,17,5.37V171.89s3,13.64,3.88,18.21c0.51,2.58-.74,24.22-0.74,24.22-0.73,5,11.16,5,11.29.25,0,0,2.06-20.08,1.84-26.79C303.81,181.33,300.55,163.2,300.55,163.2Z" transform="translate(0 -16.38)"/><path class="cls-17" d="M286.84,144.87l1.58,2.53s-7.26,1.11-9.63,10.49l-4.45-.34,2.44,4.91s-6.9,10-7.62,22.19c0,0-4.09-21.33-3.85-28.32l3.13-1.4-2.65-2.56s3.36-11.58,15.36-10.32Z" transform="translate(0 -16.38)"/><path class="cls-18" d="M269.16,171.27s-2-19.47,3.75-23.23l2.65,2.14A42.13,42.13,0,0,0,269.16,171.27Z" transform="translate(0 -16.38)"/><path class="cls-4" d="M286,142.87l1.75,3.41s-5.77-.19-13.25,7.36l-1.58-4-3.74,1.15s-0.16-5.41,4.24-7.33S286,142.87,286,142.87Z" transform="translate(0 -16.38)"/><path class="cls-19" d="M285.38,138s-1,4.36-.58,5.74c0,0-7.2,3.45-8.63,4s-4-3-4-3Z" transform="translate(0 -16.38)"/><path class="cls-16" d="M292.21,132.31h0c1-1.8,3.13-5.43,1-10-2.68-5.75-8.85-8.09-16.48-7.14-4.79.6-8.14,4.64-9.16,6.47-2.21,3.82-1.18,1.72-2.44,4.13-5.38,10.32-1.55,19.1,7.28,18.58a42.56,42.56,0,0,0,8.32-1.65c2.12,1,5-.6,5.84-1.88,1.31-2,1.75-2.19,5.35-8.09A4.88,4.88,0,0,0,292.21,132.31Z" transform="translate(0 -16.38)"/><path class="cls-18" d="M294.42,129.39c1.93-6.28-2.49-11.45-5.42-12.93-4-2-22.08-6.14-20.38,3.7,0.55,3.2,8.26,7.43,13.82,9.51,0,0-5.65,6.06-1,8.06a25.13,25.13,0,0,1-2.3,2.78l2.49-.2,1-1.41c0.14-.19,2.61-1.44,3.54-1.3,2.45,0.37,0,3.72,0,3.72s0.7-.6.83-0.74a23,23,0,0,0,4.43-6.18A11.94,11.94,0,0,0,294.42,129.39Z" transform="translate(0 -16.38)"/><path class="cls-20" d="M283,139.58s2-1.32,2.93-.89,0,2.46-2.12,3c0,0,3-1.47,2.07-2.8-0.14-.19-0.8-0.4-2.63.65,0,0,1.34.32,0.45,1.21C283.66,140.78,284.22,139.92,283,139.58Z" transform="translate(0 -16.38)"/><path class="cls-21" d="M270.85,129.68s-5.48,2.16-5.08,3.11,1.07,1.37,2.85,1.46Z" transform="translate(0 -16.38)"/><polygon class="cls-16" points="194.9 47.05 193.87 66.16 207.28 73.95 190.8 83.38 184.97 102.75 175.82 89.46 158.81 93.64 169.63 76.01 164.94 59.22 180.78 61.61 194.9 47.05"/></svg>